<?xml version="1.0" encoding="UTF-8"?>
<svg width="20px" height="21px" viewBox="0 0 20 21" version="1.1" xmlns="http://www.w3.org/2000/svg" xmlns:xlink="http://www.w3.org/1999/xlink">
    <!-- Generator: Sketch 56.2 (81672) - https://sketch.com -->
    <title>01_Positivemdpi/</title>
    <desc>Created with Sketch.</desc>
    <defs>
        <filter x="-21.1%" y="-21.1%" width="142.1%" height="142.1%" filterUnits="objectBoundingBox" id="filter-1">
            <feOffset dx="1" dy="2" in="SourceAlpha" result="shadowOffsetOuter1"></feOffset>
            <feColorMatrix values="0 0 0 0 0   0 0 0 0 0   0 0 0 0 0  0 0 0 0.302611451 0" type="matrix" in="shadowOffsetOuter1" result="shadowMatrixOuter1"></feColorMatrix>
            <feMerge>
                <feMergeNode in="shadowMatrixOuter1"></feMergeNode>
                <feMergeNode in="SourceGraphic"></feMergeNode>
            </feMerge>
        </filter>
        <linearGradient x1="35.8359024%" y1="6.60082938%" x2="118.359375%" y2="139.010184%" id="linearGradient-2">
            <stop stop-color="#72CCFC" offset="0%"></stop>
            <stop stop-color="#ADB536" offset="100%"></stop>
        </linearGradient>
    </defs>
    <g id="Page-1" stroke="none" stroke-width="1" fill="none" fill-rule="evenodd">
        <g id="Mobile3" transform="translate(-51.000000, -131.000000)">
            <g id="1st_Topic" transform="translate(0.000000, 49.000000)">
                <g id="01_Top_100_Itunes_Songs" transform="translate(10.000000, 78.000000)">
                    <g id="01_Tab">
                        <g id="01_Positive" transform="translate(41.000000, 4.000000)">
                            <g id="Group" filter="url(#filter-1)">
                                <path d="M9.5,0 L19,0 L19,19 L9.5,19 C4.25329488,19 6.42536064e-16,14.7467051 0,9.5 C-6.42536064e-16,4.25329488 4.25329488,9.63804095e-16 9.5,0 Z" id="Rectangle" fill="url(#linearGradient-2)"></path>
                                <polygon id="Shape" fill="#FFFFFF" transform="translate(10.500000, 9.500000) rotate(-270.000000) translate(-10.500000, -9.500000) " points="7.6125 8.8125 11.4625 4.9625 10.5 4 5 9.5 10.5 15 11.4625 14.0375 7.6125 10.1875 16 10.1875 16 8.8125"></polygon>
                            </g>
                        </g>
                    </g>
                </g>
            </g>
        </g>
    </g>
</svg>