<?xml version="1.0" encoding="UTF-8"?>
<svg width="53px" height="54px" viewBox="0 0 53 54" version="1.1" xmlns="http://www.w3.org/2000/svg" xmlns:xlink="http://www.w3.org/1999/xlink">
    <!-- Generator: Sketch 56.2 (81672) - https://sketch.com -->
    <title>Flag</title>
    <desc>Created with Sketch.</desc>
    <defs>
        <linearGradient x1="100%" y1="121.326652%" x2="46.4943677%" y2="31.5588573%" id="linearGradient-1">
            <stop stop-color="#813D3D" offset="0%"></stop>
            <stop stop-color="#FF8D8D" offset="100%"></stop>
        </linearGradient>
        <linearGradient x1="103.779733%" y1="111.837121%" x2="12.9452778%" y2="-6.74419981%" id="linearGradient-2">
            <stop stop-color="#FFFFFF" stop-opacity="0" offset="0%"></stop>
            <stop stop-color="#FFFFFF" offset="100%"></stop>
        </linearGradient>
        <ellipse id="path-3" cx="26.9" cy="27.8571429" rx="26.5" ry="27"></ellipse>
    </defs>
    <g id="Page-1" stroke="none" stroke-width="1" fill="none" fill-rule="evenodd">
        <g id="_1200_00_C_Home_Detail" transform="translate(-28.000000, -1182.000000)">
            <g id="2nd_Topic" transform="translate(13.000000, 1172.000000)">
                <g id="Info_Up">
                    <g id="Flag" transform="translate(14.063869, 8.685714)">
                        <path d="M50.8605915,31.3142857 L41.2798009,31.3142857 C40.9866302,34.6453202 40.281116,38.0964672 39.1632584,41.6677269 C41.0419765,42.4607632 42.9463527,43.4542209 44.8763871,44.6480999 C48.1496919,41.0448435 50.3216598,36.4230056 50.8605915,31.3142857 L53.8197511,31.3142857 C52.5599859,44.7774082 41.2285684,55.3142857 27.4361314,55.3142857 C12.8005855,55.3142857 0.936131387,43.4498316 0.936131387,28.8142857 C0.936131387,16.5274698 9.29810163,6.19369659 20.641627,3.19338132 C20.7123622,3.06709665 20.7836181,2.94073145 20.8553948,2.81428571 L21.0268896,3.09459127 C23.0792418,2.58482458 25.2260927,2.31428571 27.4361314,2.31428571 C29.6461701,2.31428571 31.793021,2.58482458 33.8453732,3.09459127 L34.0168679,2.81428571 C34.0886447,2.94073145 34.1599006,3.06709665 34.2306358,3.19338132 C45.5741611,6.19369659 53.9361314,16.5274698 53.9361314,28.8142857 C53.9361314,29.6573945 53.8967585,30.4913073 53.8197511,31.3142857 Z M29.2092457,28.3142857 L38.888455,28.3142857 C38.8910318,28.145019 38.8923206,27.9760373 38.8923206,27.8073405 C38.8923206,24.6929196 38.4883887,21.6061661 37.680525,18.5470801 C34.7953709,19.6100861 31.9716112,20.1935292 29.2092456,20.2974093 L29.2092457,28.3142857 Z M29.2092457,31.3142857 L29.2092457,39.3311621 C31.6191164,39.4217865 34.0757124,39.8773923 36.5790338,40.6979796 C37.6893291,37.4817143 38.3999477,34.3538164 38.7108897,31.3142857 L29.2092457,31.3142857 Z M50.9864856,28.3142857 L41.432792,28.3142857 C41.4350179,28.1449796 41.4361314,27.9759979 41.4361314,27.8073405 C41.4361314,24.4538682 40.9959326,21.0323252 40.1155349,17.5427115 C42.0420036,16.6642759 43.9952046,15.5770288 45.975138,14.2809701 C49.0219411,18.1621111 50.8763197,23.0238124 50.9864856,28.3142857 Z M26.2648013,28.3142857 L26.2648013,20.2272853 C23.4084117,19.987186 20.4321763,19.2501261 17.3360952,18.0161056 C16.4319932,21.2488872 15.9799422,24.5126321 15.9799422,27.8073405 C15.9799422,27.9760373 15.981231,28.145019 15.9838085,28.3142857 L26.2648013,28.3142857 Z M26.2648013,31.3142857 L16.1613731,31.3142857 C16.4879286,34.5064426 17.2553071,37.7960641 18.4635084,41.1831501 C21.1563357,40.2060584 23.7567667,39.6121037 26.2648013,39.4012861 L26.2648013,31.3142857 Z M3.88577721,28.3142857 L13.4394707,28.3142857 C13.4372448,28.1449796 13.4361314,27.9759979 13.4361314,27.8073405 C13.4361314,24.2668134 13.9268079,20.65041 14.9081609,16.9581301 C13.0642152,16.0874239 11.1794129,15.0472986 9.25375383,13.8377542 C5.99547064,17.7889594 4.00017809,22.8204369 3.88577721,28.3142857 Z M4.01167132,31.3142857 C4.57268086,36.6322893 6.90326497,41.4227025 10.4036662,45.0857679 C12.2700902,43.9696122 14.0974728,43.0153477 15.8858142,42.2229746 C14.6652508,38.4538827 13.9008,34.817653 13.5924618,31.3142857 L4.01167132,31.3142857 Z M31.7852052,51.9691729 L31.4361314,51.6805628 C33.1903306,48.6783418 34.6350001,45.7445568 35.7701402,42.8792079 C33.6018854,42.1301264 31.4149206,41.7109898 29.2092457,41.6217983 L29.2092457,52.30411 C30.0820035,52.2391591 30.9415175,52.1266526 31.7852052,51.9691729 Z M35.4492709,50.9718127 C38.2106827,49.9729728 40.7320357,48.4726086 42.9033209,46.5807288 C41.4106278,45.5422119 39.9087184,44.6662197 38.3975928,43.9527524 C37.5798673,46.2443617 36.5970934,48.5840485 35.4492709,50.9718127 Z M32.223489,5.74553575 C31.2397704,5.54244648 30.2336307,5.40069644 29.2092457,5.32446147 L29.2092457,18.0067732 C31.8353117,17.9005821 34.434856,17.3266884 37.0078785,16.285092 C35.8678146,12.8387287 34.2104575,9.42779761 32.0358072,6.05229872 L32.223489,5.74553575 Z M36.1867246,6.93766586 C37.5321865,9.71622059 38.6190095,12.4547804 39.4471935,15.1533452 C41.0105884,14.3349134 42.5640624,13.3415308 44.1076156,12.1731975 C41.868283,9.92980029 39.1790263,8.13566329 36.1867246,6.93766586 Z M23.0870576,51.9691729 C24.1239969,52.1627243 25.184843,52.2883401 26.2648013,52.3412258 L26.2648013,41.7046183 C24.0173848,41.923983 21.704498,42.5010246 19.3261408,43.4357433 C20.4253327,46.1241423 21.7953296,48.8724155 23.4361314,51.6805628 L23.0870576,51.9691729 Z M19.4229919,50.9718127 C18.3823711,48.8070555 17.4774089,46.6818145 16.7081051,44.5960899 C15.3166899,45.2812655 13.9037368,46.0841067 12.4692457,47.0046133 C14.5242755,48.697431 16.8711299,50.0487698 19.4229919,50.9718127 Z M22.6487738,5.74553575 L22.8364555,6.05229872 C20.7912368,9.22689357 19.2035669,12.4328284 18.0734458,15.6701032 C20.8942459,16.914976 23.6246977,17.6662593 26.2648013,17.9239531 L26.2648013,5.28734566 C25.0321852,5.34770703 23.8244665,5.50281331 22.6487738,5.74553575 Z M18.6855382,6.93766586 C15.8755408,8.06267597 13.3327875,9.71339944 11.1789143,11.7682002 C12.6879317,12.8011663 14.1735367,13.7062263 15.6357294,14.4833802 C16.4346818,12.0017987 17.4512847,9.48656063 18.6855382,6.93766586 Z" id="Combined-Shape" fill="url(#linearGradient-1)"></path>
                        <g id="Flag_Out_Gradient" transform="translate(0.536131, 0.457143)">
                            <mask id="mask-4" fill="white">
                                <use xlink:href="#path-3"></use>
                            </mask>
                            <use id="Mask" fill="url(#linearGradient-2)" xlink:href="#path-3"></use>
                        </g>
                    </g>
                </g>
            </g>
        </g>
    </g>
</svg>