<?xml version="1.0" encoding="UTF-8"?>
<svg width="39px" height="38px" viewBox="0 0 39 38" version="1.1" xmlns="http://www.w3.org/2000/svg" xmlns:xlink="http://www.w3.org/1999/xlink">
    <!-- Generator: Sketch 61.2 (89653) - https://sketch.com -->
    <title>Icon_flag_world</title>
    <desc>Created with Sketch.</desc>
    <defs>
        <linearGradient x1="13.2858783%" y1="2.53122945%" x2="262.712674%" y2="319.051508%" id="linearGradient-1">
            <stop stop-color="#FFE7E4" offset="0%"></stop>
            <stop stop-color="#D41200" offset="100%"></stop>
        </linearGradient>
    </defs>
    <g id="Page-1" stroke="none" stroke-width="1" fill="none" fill-rule="evenodd">
        <g id="_1200_016_Top_Album_Detail" transform="translate(-20.000000, -1483.000000)" fill="url(#linearGradient-1)" fill-rule="nonzero">
            <g id="01" transform="translate(14.000000, 1474.000000)">
                <g id="Icon_flag_world" transform="translate(6.000000, 9.000000)">
                    <path d="M19.5,0 C21.1262549,0 22.7060131,0.193971265 24.2162345,0.559464364 L24.3424288,0.358490566 C24.3952456,0.449149776 24.4476792,0.53975124 24.4997297,0.630294966 C32.8468521,2.7814644 39,10.1905848 39,19 C39,19.6044931 38.9710275,20.2023928 38.9143617,20.7924528 C37.9873646,30.4452576 29.6491518,38 19.5,38 C8.73044737,38 0,29.4934103 0,19 C0,10.1905848 6.15314791,2.7814644 14.5002704,0.630294966 C14.5523208,0.53975124 14.6047544,0.449149776 14.6575712,0.358490566 L14.7837655,0.559464364 C16.2939869,0.193971265 17.8737451,0 19.5,0 Z M18.6380779,28.2421253 C16.9843185,28.3994056 15.282383,28.8131335 13.5322711,29.4833092 C14.3411104,31.4108406 15.3492213,33.3813006 16.5566038,35.3946892 L16.2997382,35.6016172 C17.062769,35.7403899 17.8433916,35.8304541 18.6380779,35.8683721 L18.6380779,28.2421253 Z M20.8047445,28.1827449 L20.8047445,35.8417608 C21.4469625,35.7951922 22.0794351,35.7145272 22.7002619,35.6016172 L22.4433962,35.3946892 C23.7342221,33.2421534 24.7972808,31.1386849 25.6325725,29.0842838 C24.0370643,28.5472065 22.4277883,28.2466935 20.8047445,28.1827449 Z M27.565981,29.853995 C26.9642585,31.4970356 26.2410853,33.1745469 25.3964612,34.8865288 C27.4284434,34.1703794 29.2837786,33.0946466 30.8815168,31.7382045 C29.78312,30.9936075 28.6779414,30.3655376 27.565981,29.853995 Z M11.605792,30.3152558 C10.5819204,30.8065138 9.54220021,31.3821358 8.48663129,32.0421217 C9.99882303,33.25584 11.7257536,34.2247244 13.6035389,34.8865288 C12.837799,33.3344387 12.1718835,31.810681 11.605792,30.3152558 Z M9.31314879,20.7924528 L2.26313316,20.7924528 C2.6759515,24.6053611 4.39090962,28.0399969 6.96667656,30.6663457 C8.3400829,29.8660831 9.68476066,29.1818935 11.00071,28.6137769 C10.1025596,25.9114092 9.54003917,23.3043011 9.31314879,20.7924528 Z M36.7368669,20.7924528 L29.6868512,20.7924528 C29.4711218,23.1807417 28.9519698,25.655149 28.1293953,28.2156748 C29.5118483,28.7842669 30.9131817,29.4965573 32.3333957,30.352546 C34.742054,27.7690792 36.3402945,24.4553086 36.7368669,20.7924528 Z M18.6380779,20.7924528 L11.2034798,20.7924528 C11.4437753,23.0811691 12.0084501,25.4397656 12.8975038,27.8682424 C14.8790183,27.1676861 16.792543,26.7418318 18.6380779,26.5906795 L18.6380779,20.7924528 Z M27.7965203,20.7924528 L20.8047445,20.7924528 L20.8047445,26.5404019 C22.5780456,26.6053779 24.3857294,26.9320387 26.2277961,27.5203843 C27.0448059,25.2143828 27.5677139,22.971739 27.7965203,20.7924528 Z M27.0383274,11.6386073 C24.9152895,12.4007625 22.8374285,12.8190802 20.8047444,12.8935603 L20.8047444,18.6415094 L27.9271815,18.6415094 C27.9290777,18.5201484 27.930026,18.3989917 27.930026,18.2780393 C27.930026,16.0450583 27.6327931,13.8319142 27.0383274,11.6386073 Z M12.0678979,11.2579086 C11.4026153,13.575752 11.069974,15.9157955 11.069974,18.2780393 C11.069974,18.3989917 11.0709224,18.5201484 11.072819,18.6415094 L18.6380779,18.6415094 L18.6380779,12.8432827 C16.5362063,12.6711361 14.3461463,12.142678 12.0678979,11.2579086 Z M6.12051463,8.26210948 C3.72291002,11.0950491 2.25467588,14.7025235 2.1704941,18.6415094 L9.20057044,18.6415094 C9.19893251,18.5201201 9.19811322,18.3989635 9.19811322,18.2780393 C9.19811322,15.7395482 9.55917706,13.1466552 10.2813047,10.4993601 C8.92443903,9.87508021 7.53750904,9.12933 6.12051463,8.26210948 Z M33.1419105,8.57988692 C31.6849784,9.50913656 30.2477173,10.2886722 28.8301271,10.918494 C29.4779669,13.4204811 29.8018868,15.8736629 29.8018868,18.2780393 C29.8018868,18.3989635 29.8010674,18.5201201 29.7994295,18.6415094 L29.7994295,18.6415094 L36.8295059,18.6415094 C36.7484405,14.8483399 35.3838977,11.3625918 33.1419105,8.57988692 Z M20.8047445,2.15823922 L20.8047445,11.2512174 C22.7371327,11.1750804 24.6500049,10.7636095 26.5433611,10.0168045 C25.7044461,7.54582705 24.4848815,5.10025382 22.8846671,2.6800848 L23.0227726,2.46014154 C22.2989042,2.31453036 21.5585372,2.21289826 20.8047445,2.15823922 Z M18.6380779,2.13162789 C17.7310585,2.17490585 16.8423598,2.28611413 15.9772274,2.46014154 L16.1153328,2.6800848 C14.6103606,4.95620941 13.4420752,7.25480419 12.6104766,9.57586914 C14.6861597,10.4684195 16.6953601,11.0070754 18.6380779,11.191837 L18.6380779,2.13162789 Z M25.9391158,3.31487633 C26.9291726,5.30704765 27.7289103,7.27054336 28.3383287,9.20536341 C29.4887514,8.61856325 30.6318738,7.90632667 31.7676959,7.06865374 C30.1198851,5.46018026 28.1409981,4.17381789 25.9391158,3.31487633 Z M13.0608843,3.31487633 C10.9931503,4.12148736 9.12206771,5.30502494 7.53714214,6.77827831 C8.64755117,7.51889552 9.74073221,8.16780646 10.8166853,8.72501114 C11.4045937,6.94576403 12.15266,5.14238579 13.0608843,3.31487633 Z" id="Combined-Shape"></path>
                </g>
            </g>
        </g>
    </g>
</svg>