<?xml version="1.0" encoding="UTF-8"?>
<svg width="38px" height="38px" viewBox="0 0 38 38" version="1.1" xmlns="http://www.w3.org/2000/svg" xmlns:xlink="http://www.w3.org/1999/xlink">
    <!-- Generator: Sketch 61.2 (89653) - https://sketch.com -->
    <title>Group 9</title>
    <desc>Created with Sketch.</desc>
    <defs>
        <linearGradient x1="19.0815542%" y1="49.9439524%" x2="133.398699%" y2="50.1162604%" id="linearGradient-1">
            <stop stop-color="#FC7272" offset="0%"></stop>
            <stop stop-color="#B24646" offset="100%"></stop>
        </linearGradient>
        <linearGradient x1="13.2858783%" y1="16.7243767%" x2="80.9171248%" y2="181.212704%" id="linearGradient-2">
            <stop stop-color="#FFE7E4" offset="0%"></stop>
            <stop stop-color="#D41200" offset="100%"></stop>
        </linearGradient>
        <linearGradient x1="13.2858783%" y1="45.36862%" x2="80.9171248%" y2="68.2624946%" id="linearGradient-3">
            <stop stop-color="#FFE7E4" offset="0%"></stop>
            <stop stop-color="#D41200" offset="100%"></stop>
        </linearGradient>
    </defs>
    <g id="Page-1" stroke="none" stroke-width="1" fill="none" fill-rule="evenodd">
        <g id="_1200_016_Top_Album_Detail" transform="translate(-21.000000, -1545.000000)">
            <g id="Group-9" transform="translate(21.000000, 1545.000000)">
                <rect id="Rectangle" fill="url(#linearGradient-1)" x="6" y="37" width="25" height="1"></rect>
                <path d="M19.0926966,-1.73017156e-11 C22.8997217,2.44361521 27.2905343,3.36123242 32.2651342,2.75285164 C32.2127546,3.74301031 32.146145,4.70405706 32.0653053,5.6359919 C37.106189,5.50891256 38.9356039,7.39930059 37.5543107,11.3061713 C36.2177288,15.08658 32.5501159,19.1740728 26.5514721,23.5686496 C25.1527046,25.3102756 23.5045771,26.5394214 21.6064234,27.256756 L21.5461381,27.1380673 C22.7887226,29.7126891 24.885868,31 27.8375745,31 L10.3478187,31 C13.1977422,31 15.2510238,29.7999385 16.5076636,27.3998154 L16.5798213,27.2570792 C14.8064679,26.5870858 13.2514179,25.4704862 11.9146714,23.9072804 C5.63913499,19.3834893 1.81647723,15.1833288 0.445689285,11.3061713 C-0.942051686,7.38106366 0.910960039,5.49130817 6.00472446,5.63690486 L6.12,5.64 L6.06242358,4.93539726 C6.00700228,4.22431623 5.9596141,3.49680102 5.92025902,2.75285164 C10.7171947,3.04149588 14.9712974,2.19856105 18.6825672,0.224047139 L19.0926966,-1.73017156e-11 Z M2.67239694,10.4267326 C3.21513419,13.3596026 5.42581616,16.450967 9.30444282,19.7008259 C8.25742796,17.4026217 7.4430753,14.6265388 6.8619164,11.3733871 L6.84664038,11.29087 C3.51730803,7.76155689 2.12589355,7.47351109 2.67239694,10.4267326 Z M31.4920613,10.9360887 L31.3794482,11.0544188 C30.8156683,14.3257918 30.020511,17.1238117 28.9939761,19.4484784 C32.6879905,16.2903535 34.7989743,13.2833624 35.3276031,10.4267326 C35.855193,7.57571627 34.5766791,7.74550161 31.4920613,10.9360887 Z" id="Combined-Shape" fill="url(#linearGradient-2)"></path>
                <path d="M7,37 L9.69469115,30 L27.3053089,30 L30,37 L7,37 Z" id="Combined-Shape" fill="url(#linearGradient-3)"></path>
            </g>
        </g>
    </g>
</svg>