<?xml version="1.0" encoding="UTF-8"?>
<svg width="44px" height="41px" viewBox="0 0 44 41" version="1.1" xmlns="http://www.w3.org/2000/svg" xmlns:xlink="http://www.w3.org/1999/xlink">
    <!-- Generator: Sketch 56.2 (81672) - https://sketch.com -->
    <title>Icon_Volume_Audio</title>
    <desc>Created with Sketch.</desc>
    <g id="Page-1" stroke="none" stroke-width="1" fill="none" fill-rule="evenodd">
        <g id="_1200_00_B_Home_PlayerAtive" transform="translate(-1142.000000, -3798.000000)">
            <g id="Player_section" transform="translate(0.000000, 3787.000000)">
                <g id="Icon_Volume_Audio" transform="translate(1142.000000, 11.000000)">
                    <path d="M3,14.1470588 L13.3252078,14.1470588 L18.2691592,8.85330427 C18.64612,8.44967205 19.2789157,8.42805061 19.682548,8.80501145 C19.8850437,8.99412659 20,9.25877993 20,9.53585224 L20,31.4641478 C20,32.0164325 19.5522847,32.4641478 19,32.4641478 C18.7229277,32.4641478 18.4582743,32.3491915 18.2691592,32.1466957 L13.3252078,26.8529412 L3,26.8529412 C1.34314575,26.8529412 2.02906125e-16,25.5097954 0,23.8529412 L0,17.1470588 C-9.3869722e-16,15.4902046 1.34314575,14.1470588 3,14.1470588 Z" id="Rectangle" fill="#979797"></path>
                    <path d="M31.4301117,29.3667443 C31.4723618,24.5353298 30.9541021,19.8908904 27.1019498,16.2900312 C23.2497974,12.689172 19.2379286,12.7063878 14.8084901,12.7451227" id="Oval" stroke="#979797" stroke-width="2" transform="translate(23.120430, 21.052242) rotate(-315.000000) translate(-23.120430, -21.052242) "></path>
                    <path d="M38.1479504,32.137641 C38.2042838,25.695755 37.5132709,19.5031691 32.3770678,14.7020235 C27.2408646,9.90087794 21.8917062,9.92383245 15.9857882,9.97547885" id="Oval-Copy-3" stroke="#979797" stroke-width="2" opacity="0.502487909" transform="translate(27.068374, 21.051638) rotate(-315.000000) translate(-27.068374, -21.051638) "></path>
                    <path d="M45.9934486,34.3544837 C46.0638654,26.3021262 45.2000993,18.5613938 38.7798453,12.5599618 C32.3595913,6.55852986 25.6731434,6.58722299 18.2907459,6.651781" id="Oval-Copy-4" stroke="#979797" stroke-width="2" opacity="0.24827939" transform="translate(32.143979, 20.496980) rotate(-315.000000) translate(-32.143979, -20.496980) "></path>
                </g>
            </g>
        </g>
    </g>
</svg>