<?xml version="1.0" encoding="UTF-8"?>
<svg width="40px" height="40px" viewBox="0 0 40 40" version="1.1" xmlns="http://www.w3.org/2000/svg" xmlns:xlink="http://www.w3.org/1999/xlink">
    <!-- Generator: Sketch 56.2 (81672) - https://sketch.com -->
    <title>Bitmap</title>
    <desc>Created with Sketch.</desc>
    <defs>
        <rect id="path-1" x="0" y="0" width="40" height="40"></rect>
        <polygon id="path-3" points="0 0 30 0 30 28 0 28"></polygon>
    </defs>
    <g id="Page-1" stroke="none" stroke-width="1" fill="none" fill-rule="evenodd">
        <g id="_1200_06_Top_Artists" transform="translate(-953.000000, -3651.000000)">
            <g id="Platform" transform="translate(877.000000, 3518.000000)">
                <g id="03" transform="translate(76.000000, 133.000000)">
                    <g id="Bitmap">
                        <mask id="mask-2" fill="white">
                            <use xlink:href="#path-1"></use>
                        </mask>
                        <use id="Mask" fill="#FFFFFF" xlink:href="#path-1"></use>
                        <g id="Group-18" mask="url(#mask-2)">
                            <g transform="translate(5.000000, 5.000000)">
                                <mask id="mask-4" fill="white">
                                    <use xlink:href="#path-3"></use>
                                </mask>
                                <g id="Clip-17" stroke="none" fill="none"></g>
                                <path d="M16.7074474,18.8296687 C16.7074474,19.1471542 16.7047387,19.4646397 16.7082213,19.7819391 C16.7109301,20.0154938 16.851785,20.160093 17.0704198,20.1643733 C17.2960199,20.1686536 17.4533208,20.0184714 17.4546752,19.7806364 C17.4583514,19.1521789 17.4579644,18.5235352 17.4550622,17.8952637 C17.4539013,17.6551955 17.2996961,17.4988721 17.0791265,17.4994289 C16.8591374,17.4998026 16.7101561,17.6563121 16.7080278,17.8965664 C16.7053191,18.2075385 16.7074474,18.5185105 16.7074474,18.8296687 M16.7074474,15.6529524 C16.7074474,15.9769514 16.7047387,16.3009504 16.7082213,16.6247633 C16.7107366,16.8568293 16.8535264,17.0036617 17.0702263,17.008128 C17.295246,17.0125944 17.4533208,16.8618539 17.4546752,16.6240189 C17.4583514,15.9955614 17.4579644,15.3671038 17.4550622,14.7386462 C17.4537078,14.498392 17.3006635,14.3429988 17.0795135,14.3429988 C16.8589439,14.3428129 16.7101561,14.498392 16.7080278,14.7392045 C16.7053191,15.0438492 16.7074474,15.3484939 16.7074474,15.6529524 M3.22929169,15.6715624 C3.22929169,15.9888618 3.22696991,16.3061612 3.23006562,16.6234606 C3.2323874,16.8568293 3.37053362,17.0012424 3.58878141,17.008128 C3.82618393,17.015572 3.98716103,16.8838137 3.99025674,16.6435594 C3.99876995,16.0026332 3.99838299,15.3611486 3.99103067,14.7202224 C3.98832192,14.4784793 3.82850572,14.3376021 3.59980989,14.3420685 C3.37633808,14.3461627 3.23200044,14.4982059 3.22987214,14.7392045 C3.22716339,15.0498044 3.22909821,15.3605903 3.22929169,15.6715624 M3.22929169,18.8292965 C3.22929169,19.1465959 3.22696991,19.4640814 3.23006562,19.7813808 C3.2323874,20.015866 3.36937272,20.1578598 3.58974882,20.1643733 C3.82908616,20.171259 3.98793496,20.0409894 3.99103067,19.7996186 C3.99915692,19.1585062 3.99876995,18.5170217 3.99122415,17.8759094 C3.9885154,17.6347246 3.82695786,17.4932891 3.598649,17.4981277 C3.37556415,17.5027802 3.23180696,17.6550094 3.22987214,17.8963803 C3.22735687,18.2073524 3.22909821,18.5183244 3.22929169,18.8292965 M16.1194553,19.7718898 C16.1194553,19.1425017 16.1217771,18.5131136 16.1182944,17.8837256 C16.1169401,17.6553816 15.9638957,17.5033385 15.7499045,17.4998026 C15.5357199,17.4962667 15.3733884,17.648496 15.3730014,17.8720013 C15.3704862,19.1309635 15.3689383,20.3899258 15.3774515,21.6485158 C15.3782255,21.7460318 15.4343353,21.8878396 15.5111477,21.9291536 C15.6193041,21.9874027 15.7795073,22.0056405 15.9019815,21.9779117 C16.0588954,21.9423667 16.1194553,21.7973953 16.1194553,21.6405135 C16.1194553,21.017825 16.1194553,20.3947643 16.1194553,19.7718898 M15.3714536,14.7364131 C15.3714536,15.352402 15.3706797,15.9687631 15.3718405,16.584752 C15.372421,16.8505019 15.5053432,17.0034756 15.734426,17.008128 C15.9737633,17.0129666 16.1188749,16.8560849 16.1190684,16.5843798 C16.1202293,15.3585432 16.1202293,14.1325206 16.1190684,12.9066841 C16.1188749,12.650053 15.9722155,12.4922408 15.7435196,12.4924267 C15.5117281,12.492613 15.3726145,12.6452145 15.372034,12.9072424 C15.3704862,13.5169039 15.3714536,14.1267515 15.3714536,14.7364131 M4.56547899,19.7547686 C4.56547899,20.3713158 4.56470506,20.987863 4.56586595,21.6044102 C4.56625292,21.8645771 4.70401216,22.0207145 4.93290147,22.0270419 C5.17146489,22.0331832 5.32818538,21.8759292 5.32876582,21.6081322 C5.33186154,20.3750378 5.33205502,19.1419434 5.32857234,17.908849 C5.3279919,17.6473794 5.18036506,17.4988721 4.94702567,17.498125 C4.70672091,17.4973833 4.56625292,17.6524041 4.56586595,17.9244813 C4.56470506,18.5345151 4.56547899,19.1445488 4.56547899,19.7547686 M4.56547899,14.7580006 C4.56547899,15.3680343 4.56489854,15.978068 4.56586595,16.5879157 C4.56625292,16.8568293 4.69356413,17.0025451 4.92864487,17.008128 C5.1799781,17.0140832 5.3279919,16.8724616 5.32876582,16.5996399 C5.3322485,15.3667316 5.33186154,14.1338233 5.32876582,12.900915 C5.32818538,12.6411203 5.15888855,12.4712116 4.93057969,12.4801443 C4.70749484,12.4887049 4.56625292,12.6526584 4.56586595,12.9087312 C4.56470506,13.5250923 4.56547899,14.1416395 4.56547899,14.7580006 M13.9965699,14.2317116 C13.9965699,15.0163065 13.9959894,15.8007153 13.9969568,16.5851242 C13.9973438,16.8491992 14.1318138,17.0034756 14.3603162,17.008128 C14.6000405,17.0129666 14.7439912,16.8568293 14.7441847,16.5845659 C14.7449586,15.0218895 14.7449586,13.4595853 14.7441847,11.897095 C14.7441847,11.6229706 14.6029427,11.4612503 14.3696033,11.4614362 C14.1366509,11.4618086 13.9971503,11.6231567 13.9969568,11.8978394 C13.9959894,12.6759209 13.9965699,13.4538162 13.9965699,14.2317116 M6.69049276,20.2680307 C6.69049276,19.4899492 6.69262106,18.7120539 6.68759053,17.9341585 C6.68701008,17.8411088 6.67095107,17.73466 6.62219358,17.657987 C6.5333853,17.5185986 6.38479106,17.4683518 6.21723557,17.5159932 C6.02259259,17.571823 5.94191056,17.7095366 5.94210404,17.8993579 C5.94268449,18.5542416 5.94210404,19.2087531 5.94210404,19.8636367 C5.94210404,20.7840842 5.9436519,21.7045317 5.9409395,22.6253514 C5.9403627,22.8211279 6.00885536,22.971124 6.21065718,23.0332812 C6.46295782,23.1106985 6.68817097,22.935579 6.68933187,22.6599658 C6.6922341,21.8627162 6.69049276,21.0652804 6.69049276,20.2680307 M6.69049276,14.2348753 C6.69049276,13.4439529 6.68875142,12.6532167 6.69165932,11.8622944 C6.69242758,11.6698677 6.61406733,11.5351317 6.42116569,11.4768826 C6.15919094,11.3981626 5.94287797,11.5866813 5.94268449,11.8939313 C5.9415236,13.4499081 5.94191056,15.0056988 5.94249101,16.5614896 C5.94249101,16.8529212 6.07966981,17.0112917 6.32461813,17.0081745 C6.56027931,17.0051505 6.69010579,16.8508741 6.69029928,16.5687474 C6.69087972,15.790666 6.69049276,15.0127706 6.69049276,14.2348753 M14.7443781,20.2894321 C14.7443781,19.4919963 14.745926,18.6945605 14.7436042,17.8971247 C14.7428303,17.6559399 14.5909468,17.4999885 14.3697968,17.4999885 C14.1494207,17.4998026 13.9977308,17.656126 13.9975373,17.8971247 C13.9959894,19.4854828 13.995409,21.074027 14.000246,22.6623851 C14.0004395,22.7468742 14.033138,22.8434598 14.0832498,22.9126888 C14.1834736,23.0507745 14.3386462,23.0811087 14.4982689,23.0258372 C14.6685332,22.9666576 14.7453455,22.8376907 14.74496,22.6623851 C14.7436042,21.8712767 14.7443781,21.0803544 14.7443781,20.2894321 M12.6607695,13.9408383 C12.6607695,14.8231354 12.6601891,15.7052464 12.6611565,16.5873574 C12.66135,16.8508741 12.7977549,17.0045922 13.0274181,17.008181 C13.2667554,17.0114778 13.4081908,16.8558988 13.4081908,16.5814022 C13.4089648,14.8236937 13.4089648,13.0656129 13.4081908,11.3079044 C13.4081908,11.0328495 13.2673359,10.8739207 13.0312877,10.8757655 C12.7964005,10.8776427 12.6611565,11.0354549 12.660963,11.3138596 C12.6603826,12.1894571 12.6607695,13.0650546 12.6607695,13.9408383 M8.02629309,20.5669063 C8.02629309,19.6847952 8.02416479,18.8024981 8.02803443,17.9205732 C8.02900184,17.7225635 7.96089615,17.5772199 7.75696602,17.5158071 C7.49441083,17.4370871 7.27887179,17.6248613 7.27887179,17.9328558 C7.27790438,19.684237 7.27809786,21.435432 7.27848482,23.1868132 C7.2786783,23.4793614 7.4137288,23.6354987 7.66022498,23.632563 C7.89859491,23.6293575 8.02590613,23.4782448 8.02609961,23.1938849 C8.02687354,22.3182874 8.02648657,21.4425038 8.02629309,20.5669063 M8.02629309,13.9607509 C8.02629309,13.0721264 8.02397131,12.1835019 8.02823431,11.2950635 C8.02900184,11.0963094 7.95973525,10.9507797 7.75696602,10.8897391 C7.49537824,10.8106469 7.27906527,11.0008404 7.27887179,11.3075322 C7.27790438,13.0587273 7.27829134,14.8101084 7.2786783,16.5614896 C7.2786783,16.8536656 7.41488969,17.0112917 7.66041846,17.0081748 C7.89588616,17.0049644 8.02590613,16.8503158 8.02609961,16.5683752 C8.02687354,15.6992912 8.02648657,14.830021 8.02629309,13.9607509 M12.6605761,20.5817942 L12.6605761,21.2433775 C12.6607695,21.9116603 12.6588347,22.5795709 12.6619304,23.2476676 C12.6630913,23.5083929 12.8538647,23.6676939 13.1038435,23.6286131 C13.29868,23.5980928 13.4081908,23.4510743 13.4081908,23.2111922 C13.4089648,21.4534836 13.4087747,19.6954029 13.4083843,17.9376944 C13.4083843,17.8922861 13.4108996,17.8461335 13.4031603,17.8018418 C13.3698814,17.6062514 13.1744645,17.4715155 12.9751779,17.5040829 C12.77415,17.5368363 12.6615435,17.6806912 12.6611565,17.9159208 C12.6599956,18.8043591 12.6607695,19.6931697 12.6605761,20.5817942 M11.2930447,13.7833982 L11.2930447,14.6003744 C11.2930447,15.2684711 11.2909164,15.9363818 11.2940121,16.6042924 C11.2953664,16.8826971 11.4679525,17.0336237 11.7390209,17.0066392 C11.9491424,16.98561 12.0654252,16.8318919 12.0654252,16.5683752 C12.0660056,14.7202224 12.0658121,12.8718835 12.0656186,11.0237307 C12.0656186,10.9783224 12.0687143,10.9319837 12.0611685,10.887692 C12.024407,10.6766553 11.8084809,10.5329866 11.6010681,10.5787671 C11.4046838,10.6219421 11.2940121,10.7698911 11.2936251,11.0013987 C11.2924642,11.9287319 11.2932381,12.8558789 11.2930447,13.7833982 M9.39401797,13.8135463 C9.39401797,13.3401095 9.39401797,12.8666727 9.39382449,12.3932359 C9.39382449,11.9197991 9.39614627,11.4463623 9.39285708,10.9731116 C9.39111574,10.7380681 9.23555614,10.5763478 9.01808227,10.5707648 C8.79557787,10.5649957 8.63092461,10.7324852 8.62183096,10.9742282 C8.62086355,11.0066095 8.62144399,11.0391769 8.62144399,11.0715582 C8.62144399,12.8871436 8.62144399,14.7029152 8.62163747,16.5188728 C8.62163747,16.5771219 8.61776783,16.6363015 8.62666801,16.693434 C8.65781862,16.8927464 8.80873465,17.0112917 9.01963013,17.0081898 C9.25567828,17.0044061 9.39285708,16.8568293 9.39324404,16.5955457 C9.3947919,15.6682126 9.39382449,14.7408794 9.39401797,13.8135463 M9.39382449,20.7174606 C9.39382449,19.7834279 9.39498538,18.8492091 9.39324404,17.9151764 C9.39266359,17.6239308 9.1895074,17.4499279 8.91979337,17.5025941 C8.73114834,17.5396278 8.62221792,17.6924154 8.62183096,17.9311809 C8.62086355,18.8719132 8.62144399,19.8122733 8.62144399,20.7528195 C8.62144399,21.6674979 8.61505908,22.5821763 8.62898979,23.4964825 C8.63073113,23.6222857 8.70057817,23.7875419 8.79867358,23.8591902 C8.88690142,23.9239528 9.06780717,23.9202308 9.18815303,23.8848719 C9.35164539,23.8366721 9.39498538,23.6810931 9.39479254,23.5195588 C9.39305056,22.5857122 9.39382449,21.6514934 9.39382449,20.7174606 M12.0658121,20.7169023 C12.0658121,19.7826835 12.066973,18.8486508 12.0652317,17.914432 C12.0646512,17.6559399 11.9230223,17.5025941 11.6910373,17.4981277 C11.4476368,17.4932891 11.294399,17.6483099 11.2938186,17.912571 C11.2916903,18.7688142 11.2928512,19.6250574 11.2928512,20.4813005 C11.2928512,21.4867954 11.2924642,22.4922903 11.2934316,23.4977852 C11.2936251,23.7369229 11.3984924,23.8872912 11.5882983,23.9295357 C11.8508535,23.988157 12.0644577,23.8081989 12.0650382,23.5190005 C12.0671665,22.5849678 12.0658121,21.6509351 12.0658121,20.7169023 M10.7298183,13.762369 C10.7298183,12.8086097 10.7309792,11.8550365 10.7290444,10.9012773 C10.7284639,10.6225004 10.5529757,10.4604079 10.2923553,10.4877645 C10.0754619,10.5102825 9.95782477,10.6682809 9.95763129,10.9431496 C9.95724433,12.5523509 9.95743781,14.1611799 9.95743781,15.770195 C9.95743781,16.0556715 9.95260076,16.3411479 9.95917915,16.6264382 C9.96498361,16.8886522 10.1424067,17.034182 10.4067032,17.0064531 C10.6098594,16.9852378 10.7292379,16.8326363 10.7294313,16.584752 C10.7303987,15.6440197 10.7298183,14.7031013 10.7298183,13.762369 M9.95743781,20.7572859 C9.95743781,21.7045317 9.95627692,22.6517775 9.95821174,23.5990233 C9.95879218,23.8934325 10.127702,24.0473366 10.4067032,24.0179329 C10.6150834,23.9961593 10.7296248,23.8416968 10.7296248,23.5766913 C10.7300118,21.7017402 10.7298183,19.826603 10.7296248,17.9516518 C10.7296248,17.9062436 10.7458773,17.848925 10.7236269,17.8178464 C10.6475884,17.7108393 10.576,17.5628903 10.4676501,17.5264148 C10.3593001,17.4899393 10.1764595,17.5318117 10.0866838,17.6068097 C10.0025191,17.6771553 9.9640162,17.8347814 9.96285531,17.9546294 C9.9531812,18.8888483 9.95743781,19.8230671 9.95743781,20.7572859 M25.5577051,19.6336159 C24.4987776,19.6321291 23.6449411,20.4401726 23.6414491,21.4471563 C23.6381693,22.4634449 24.5028407,23.2997755 25.5526745,23.2956963 C26.6009605,23.2919593 27.4571187,22.4677252 27.4578932,21.4618581 C27.4586666,20.4494776 26.6123759,19.6351067 25.5577051,19.6336159 M25.6525113,11.2237832 C24.0967218,11.2211821 22.8377339,12.4200342 22.8367659,13.9045489 C22.835799,15.3771532 24.0920782,16.588474 25.628713,16.5970776 C27.1589628,16.605409 28.4285923,15.3907384 28.4301416,13.9175758 C28.431688,12.428967 27.1914678,11.2262068 25.6525113,11.2237832 M4.80268803,6.99281836 C4.86789149,6.64685963 4.92187299,6.60219578 5.25543611,6.55064626 C5.30400012,6.54320229 5.34734011,6.47229843 5.38139295,6.42335429 C5.397065,6.40083627 5.38448867,6.36008051 5.38448867,6.32769922 C5.38448867,4.60739666 5.38623,2.8872802 5.38023206,1.16716374 C5.3798451,1.06722838 5.33592466,0.955382664 5.27807352,0.870521352 C5.11864428,0.635477851 5.14244257,0.332135881 5.35507939,0.142872824 C5.55900951,-0.0387601591 5.87651361,-0.0482512269 6.09630927,0.1203548 C6.31765277,0.290263523 6.3606058,0.596955282 6.21781602,0.843164745 C6.15957791,0.943472305 6.11256176,1.06611179 6.1121748,1.17870191 C6.10559641,2.89249098 6.10946605,4.60609396 6.104629,6.31988304 C6.10424203,6.48271999 6.12765336,6.57037279 6.33022911,6.56590641 C6.50474995,6.56199832 6.61503474,6.68017142 6.63418947,6.84840525 C6.64773322,6.96695055 6.70384302,7.00472872 6.81877138,6.99244616 C6.87217244,6.98649098 6.92673439,6.99132956 6.98071589,6.99132956 C13.38536,6.99170176 19.790004,6.99039907 26.1944546,6.99337666 C27.9090929,6.99412105 29.3785893,8.05656234 29.8458486,9.63877917 C29.9350438,9.94063235 29.9909601,10.2627704 29.9917341,10.5756034 C30.0008277,15.0287752 30.002956,19.4817608 29.9954102,23.9347465 C29.992508,25.6946882 28.5889889,27.231869 26.7787705,27.4680291 C26.3801974,27.5197647 25.9717567,27.5046907 25.5677661,27.5119486 C25.4536117,27.5141818 25.3887952,27.5355832 25.3470031,27.6528258 C25.2665145,27.8787504 25.0666475,28.0105088 24.84008,27.9993428 C24.6061601,27.9881768 24.4194499,27.8871249 24.3447658,27.6641778 C24.3031672,27.5402357 24.2368028,27.4968745 24.1114264,27.5139957 C24.0849194,27.5177176 24.0574449,27.514554 24.0305509,27.514554 C18.0173211,27.514554 12.0040913,27.5149262 5.99105501,27.5121347 C5.82427345,27.5121347 5.70973206,27.5233006 5.64820475,27.7127498 C5.58125995,27.9195062 5.37810376,28.0006455 5.16295168,27.9972957 C4.93735156,27.9933876 4.74580429,27.8908469 4.6798269,27.6764604 C4.63300424,27.5246033 4.54845257,27.5125069 4.41591734,27.5125069 C3.88422856,27.512693 3.35312023,27.5348388 2.82839681,27.4001028 C1.33800428,27.0171103 0.234769421,25.8193748 0.0383851019,24.3456539 C0.014393323,24.1662541 0.00201046943,23.9840628 0.00201046943,23.8031743 C-2.49280225e-05,19.4410051 -0.000698279793,15.079022 0.000849576908,10.7166667 C0.00162350526,8.87707446 1.22462378,7.43164067 3.09733691,7.05851143 C3.30687801,7.01663908 3.52454536,7.00175113 3.73911699,6.99560985 C4.08912609,6.98537438 4.43952215,6.99281836 4.80268803,6.99281836" id="Fill-16" stroke="none" fill="#BF272D" fill-rule="evenodd" mask="url(#mask-4)"></path>
                            </g>
                        </g>
                    </g>
                </g>
            </g>
        </g>
    </g>
</svg>