<?xml version="1.0" encoding="UTF-8"?>
<svg width="40px" height="41px" viewBox="0 0 40 41" version="1.1" xmlns="http://www.w3.org/2000/svg" xmlns:xlink="http://www.w3.org/1999/xlink">
    <!-- Generator: Sketch 61.2 (89653) - https://sketch.com -->
    <title>Youtube_icon_box</title>
    <desc>Created with Sketch.</desc>
    <defs>
        <filter x="-6.2%" y="-6.2%" width="112.5%" height="112.5%" filterUnits="objectBoundingBox" id="filter-1">
            <feOffset dx="0" dy="1" in="SourceAlpha" result="shadowOffsetOuter1"></feOffset>
            <feColorMatrix values="0 0 0 0 0   0 0 0 0 0   0 0 0 0 0  0 0 0 0.116887019 0" type="matrix" in="shadowOffsetOuter1" result="shadowMatrixOuter1"></feColorMatrix>
            <feMerge>
                <feMergeNode in="shadowMatrixOuter1"></feMergeNode>
                <feMergeNode in="SourceGraphic"></feMergeNode>
            </feMerge>
        </filter>
        <rect id="path-2" x="0" y="0" width="40" height="40" rx="9"></rect>
    </defs>
    <g id="Page-1" stroke="none" stroke-width="1" fill="none" fill-rule="evenodd">
        <g id="_1200_016_Top_Album_Detail" transform="translate(-936.000000, -1715.000000)">
            <g id="Platform" transform="translate(877.000000, 1382.000000)">
                <g id="06-copy-2" transform="translate(59.000000, 333.000000)">
                    <g id="Youtube_icon_box" filter="url(#filter-1)">
                        <mask id="mask-3" fill="white">
                            <use xlink:href="#path-2"></use>
                        </mask>
                        <use id="Mask" fill="#FFFFFF" xlink:href="#path-2"></use>
                        <g id="youtube_icon_logo" mask="url(#mask-3)" fill-rule="nonzero">
                            <g transform="translate(3.000000, 8.000000)" id="Path">
                                <path d="M32.5914286,4.25809524 C32.2187233,2.84877442 31.1237536,1.74455155 29.717619,1.36 C27.1757143,0.68 17,0.68 17,0.68 C17,0.68 6.82428571,0.68 4.28238095,1.36 C2.87624635,1.74455155 1.78127675,2.84877442 1.40857143,4.25809524 C0.728571429,6.81619048 0.728571429,12.1428571 0.728571429,12.1428571 C0.728571429,12.1428571 0.728571429,17.4695238 1.40857143,20.027619 C1.78127675,21.4369399 2.87624635,22.5411627 4.28238095,22.9257143 C6.82428571,23.6057143 17,23.6057143 17,23.6057143 C17,23.6057143 27.1757143,23.6057143 29.717619,22.9257143 C31.1237536,22.5411627 32.2187233,21.4369399 32.5914286,20.027619 C33.2714286,17.4695238 33.2714286,12.1428571 33.2714286,12.1428571 C33.2714286,12.1428571 33.2714286,6.81619048 32.5914286,4.25809524 Z" fill="#FF0000"></path>
                                <polygon fill="#FFFFFF" points="13.6728571 16.9838095 22.1809524 12.1428571 13.6728571 7.30190476"></polygon>
                            </g>
                        </g>
                    </g>
                </g>
            </g>
        </g>
    </g>
</svg>