<?xml version="1.0" encoding="UTF-8"?>
<svg width="40px" height="40px" viewBox="0 0 40 40" version="1.1" xmlns="http://www.w3.org/2000/svg" xmlns:xlink="http://www.w3.org/1999/xlink">
    <!-- Generator: Sketch 56.2 (81672) - https://sketch.com -->
    <title>Bitmap</title>
    <desc>Created with Sketch.</desc>
    <defs>
        <rect id="path-1" x="0" y="0" width="40" height="40"></rect>
    </defs>
    <g id="Page-1" stroke="none" stroke-width="1" fill="none" fill-rule="evenodd">
        <g id="_1200_06_Top_Artists" transform="translate(-953.000000, -3701.000000)">
            <g id="Platform" transform="translate(877.000000, 3518.000000)">
                <g id="04" transform="translate(76.000000, 183.000000)">
                    <g id="Bitmap">
                        <mask id="mask-2" fill="white">
                            <use xlink:href="#path-1"></use>
                        </mask>
                        <use id="Mask" fill="#FFFFFF" xlink:href="#path-1"></use>
                        <g id="Spotify_Logo_RGB_Green" mask="url(#mask-2)" fill="#1ED760">
                            <g transform="translate(3.000000, 3.000000)" id="Fill-1">
                                <path d="M27.0559506,15.0708716 C21.5761462,11.8165459 12.5373313,11.5173209 7.30620287,13.1049998 C6.46618544,13.3597674 5.5778538,12.8855546 5.32329076,12.0455322 C5.06872772,11.2051037 5.54253166,10.3173758 6.3831581,10.0619992 C12.3881256,8.23924388 22.3704885,8.59124942 28.6789422,12.3360281 C29.4347143,12.7846626 29.6825783,13.7604934 29.2345555,14.514849 C28.7863297,15.2704226 27.8096927,15.5195061 27.0559506,15.0708716 Z M26.8764979,19.8909521 C26.4922173,20.5147774 25.67656,20.7102683 25.0535504,20.3274065 C20.4850167,17.5190762 13.5186373,16.705647 8.11374017,18.3463095 C7.41277831,18.5580407 6.67243428,18.1627957 6.45968941,17.4632507 C6.24836554,16.7622846 6.64381116,16.0233572 7.34335202,15.810205 C13.5178253,13.9366992 21.1932866,14.8441183 26.4404521,18.0688058 C27.0634616,18.4524796 27.2595604,19.2685478 26.8764979,19.8909521 Z M24.7963484,24.5200076 C24.4910351,25.0208137 23.8385905,25.1779373 23.3396144,24.8726222 C19.3474001,22.4327406 14.3227236,21.8815901 8.40524936,23.2333807 C7.83502003,23.364114 7.26682071,23.0066274 7.13669718,22.4365977 C7.00596464,21.8663649 7.3620281,21.2981622 7.93347543,21.1680379 C14.4092019,19.687544 19.9641166,20.3247674 24.4449539,23.062859 C24.944539,23.3679711 25.1018646,24.0206226 24.7963484,24.5200076 Z M17.0001015,0 C7.61131312,0 0,7.61095256 0,16.999797 C0,26.3892504 7.61131312,34 17.0001015,34 C26.3890929,34 34,26.3892504 34,16.999797 C34,7.61095256 26.3890929,0 17.0001015,0 L17.0001015,0 Z"></path>
                            </g>
                        </g>
                    </g>
                </g>
            </g>
        </g>
    </g>
</svg>