<?xml version="1.0" encoding="UTF-8"?>
<svg width="92px" height="35px" viewBox="0 0 92 35" version="1.1" xmlns="http://www.w3.org/2000/svg" xmlns:xlink="http://www.w3.org/1999/xlink">
    <!-- Generator: Sketch 56.2 (81672) - https://sketch.com -->
    <title>Logo_TopCharts</title>
    <desc>Created with Sketch.</desc>
    <defs>
        <path d="M22.177736,26 C17.496258,26 14,22.3538373 14,17.5135472 C14,12.6461627 17.496258,9 22.177736,9 C26.2086119,9 29.3306938,11.7993171 29.9558245,15.9022266 L25.6626212,15.9022266 C25.1345826,14.2426506 23.8056512,13.1651078 22.1869471,13.1651078 C20.0090936,13.1651078 18.4116313,15.0076199 18.4116313,17.5131516 C18.4116313,20.0090915 20.0090936,21.8249049 22.1869471,21.8249049 C23.8935323,21.8249049 25.2352464,20.6549052 25.6660988,18.8567922 L30,18.8567922 C29.4152852,23.1115881 26.2744992,25.9997033 22.177736,25.9997033 L22.177736,26 Z" id="path-1"></path>
        <filter x="-15.6%" y="-14.7%" width="131.2%" height="129.4%" filterUnits="objectBoundingBox" id="filter-2">
            <feGaussianBlur stdDeviation="1.5" in="SourceAlpha" result="shadowBlurInner1"></feGaussianBlur>
            <feOffset dx="2" dy="1" in="shadowBlurInner1" result="shadowOffsetInner1"></feOffset>
            <feComposite in="shadowOffsetInner1" in2="SourceAlpha" operator="arithmetic" k2="-1" k3="1" result="shadowInnerInner1"></feComposite>
            <feColorMatrix values="0 0 0 0 0   0 0 0 0 0   0 0 0 0 0  0 0 0 0.5 0" type="matrix" in="shadowInnerInner1"></feColorMatrix>
        </filter>
        <path d="M44,26 L39.470221,26 L39.470221,18.978577 C39.470221,17.5380416 38.9372446,16.8037247 37.7551328,16.8037247 C36.3844582,16.8037247 35.5298832,17.7276066 35.5298832,19.3303012 L35.5298832,26 L31,26 L31,9 L35.5298832,9 L35.5298832,14.3319598 C36.498221,13.5913109 37.7298174,13.1408468 39.0405895,13.1408468 C42.0597823,13.1408468 44,15.2413968 44,18.4787429 L44,26 Z" id="path-3"></path>
        <filter x="-19.2%" y="-14.7%" width="138.5%" height="129.4%" filterUnits="objectBoundingBox" id="filter-4">
            <feGaussianBlur stdDeviation="1.5" in="SourceAlpha" result="shadowBlurInner1"></feGaussianBlur>
            <feOffset dx="2" dy="1" in="shadowBlurInner1" result="shadowOffsetInner1"></feOffset>
            <feComposite in="shadowOffsetInner1" in2="SourceAlpha" operator="arithmetic" k2="-1" k3="1" result="shadowInnerInner1"></feComposite>
            <feColorMatrix values="0 0 0 0 0   0 0 0 0 0   0 0 0 0 0  0 0 0 0.5 0" type="matrix" in="shadowInnerInner1"></feColorMatrix>
        </filter>
        <path d="M55.2037169,18.9860327 C55.2037169,17.2780648 54.1047711,15.9954733 52.6097385,15.9954733 C51.1057102,15.9954733 50.0157602,17.2780648 50.0157602,18.9860327 C50.0157602,20.7043197 51.1147059,21.9870155 52.6097385,21.9870155 C54.1047711,21.9870155 55.2037169,20.7043197 55.2037169,18.9860327 L55.2037169,18.9860327 Z M59,12.3966079 L59,25.5549235 L55.9143783,25.5549235 L55.572633,24.6243281 C54.6236769,25.4971783 53.421923,26 52.0761458,26 C48.5327524,26 46,23.0647885 46,18.9755052 C46,14.9003976 48.5327524,12 52.0761458,12 C53.4408324,12 54.6598434,12.5174144 55.6167854,13.4139256 L56.0250807,12.3962952 L59,12.3966079 Z" id="path-5"></path>
        <filter x="-19.2%" y="-17.9%" width="138.5%" height="135.7%" filterUnits="objectBoundingBox" id="filter-6">
            <feGaussianBlur stdDeviation="1.5" in="SourceAlpha" result="shadowBlurInner1"></feGaussianBlur>
            <feOffset dx="2" dy="1" in="shadowBlurInner1" result="shadowOffsetInner1"></feOffset>
            <feComposite in="shadowOffsetInner1" in2="SourceAlpha" operator="arithmetic" k2="-1" k3="1" result="shadowInnerInner1"></feComposite>
            <feColorMatrix values="0 0 0 0 0   0 0 0 0 0   0 0 0 0 0  0 0 0 0.5 0" type="matrix" in="shadowInnerInner1"></feColorMatrix>
        </filter>
        <path d="M70,13 L70,17.0782324 L68.3571602,17.0782324 C66.8590336,17.0782324 66.2315216,17.7701514 66.2315216,19.4205692 L66.2315216,26 L62,26 L62,13.0616998 L64.8348985,13.0616998 L65.4951097,14.4975008 C66.3614423,13.4420451 67.416768,13 68.878984,13 L70,13 Z" id="path-7"></path>
        <filter x="-31.2%" y="-19.2%" width="162.5%" height="138.5%" filterUnits="objectBoundingBox" id="filter-8">
            <feGaussianBlur stdDeviation="1.5" in="SourceAlpha" result="shadowBlurInner1"></feGaussianBlur>
            <feOffset dx="2" dy="1" in="shadowBlurInner1" result="shadowOffsetInner1"></feOffset>
            <feComposite in="shadowOffsetInner1" in2="SourceAlpha" operator="arithmetic" k2="-1" k3="1" result="shadowInnerInner1"></feComposite>
            <feColorMatrix values="0 0 0 0 0   0 0 0 0 0   0 0 0 0 0  0 0 0 0.5 0" type="matrix" in="shadowInnerInner1"></feColorMatrix>
        </filter>
        <linearGradient x1="45.0530487%" y1="14.9702258%" x2="63.3437918%" y2="122.662764%" id="linearGradient-9">
            <stop stop-color="#FC7272" offset="0%"></stop>
            <stop stop-color="#B24646" offset="100%"></stop>
        </linearGradient>
        <path d="M79,22.282087 L79,26 L76.5555578,26 C74.2743726,26 72.8879958,24.3339923 72.8879958,21.5954176 L72.8879958,12.8719646 L71,12.8719646 L71,11.8797401 L75.6214469,6 L76.351364,6 L76.351364,9.60311022 L78.9427212,9.60311022 L78.9427212,12.8719646 L76.4409184,12.8719646 L76.4409184,20.8671616 C76.4409184,21.7497572 76.8867292,22.282087 77.6363386,22.282087 L79,22.282087 Z" id="path-10"></path>
        <filter x="-31.2%" y="-12.5%" width="162.5%" height="125.0%" filterUnits="objectBoundingBox" id="filter-11">
            <feGaussianBlur stdDeviation="1.5" in="SourceAlpha" result="shadowBlurInner1"></feGaussianBlur>
            <feOffset dx="2" dy="1" in="shadowBlurInner1" result="shadowOffsetInner1"></feOffset>
            <feComposite in="shadowOffsetInner1" in2="SourceAlpha" operator="arithmetic" k2="-1" k3="1" result="shadowInnerInner1"></feComposite>
            <feColorMatrix values="0 0 0 0 0   0 0 0 0 0   0 0 0 0 0  0 0 0 0.5 0" type="matrix" in="shadowInnerInner1"></feColorMatrix>
        </filter>
        <path d="M86.4954629,25.9997918 C83.1017431,25.9997918 81.0393541,24.1085694 81,21.2617963 L85.1280329,21.2617963 C85.1280329,22.2226551 85.7619389,22.6649915 86.575256,22.6649915 C87.2025537,22.6649915 87.7972042,22.3272546 87.7972042,21.6481381 C87.7972042,20.8903377 86.8546796,20.6742694 85.6584743,20.4654866 C83.7277585,20.1353475 81.1683643,19.5205519 81.1683643,16.3338562 C81.1683643,13.7001331 83.2952585,12 86.4854025,12 C89.6561161,12 91.7110091,13.7798577 91.7598318,16.4420985 L87.7437459,16.4420985 C87.7437459,15.6031164 87.2092606,15.2131318 86.43224,15.2131318 C85.7446784,15.2131318 85.2827861,15.572309 85.2827861,16.1812762 C85.2827861,16.9289808 86.2350752,17.1030012 87.4179653,17.3255224 C89.3847802,17.6941708 92,18.1255789 92,21.457361 C92,24.2031774 89.803965,26 86.4946739,26 L86.4954629,25.9997918 Z" id="path-12"></path>
        <filter x="-22.7%" y="-17.9%" width="145.5%" height="135.7%" filterUnits="objectBoundingBox" id="filter-13">
            <feGaussianBlur stdDeviation="1.5" in="SourceAlpha" result="shadowBlurInner1"></feGaussianBlur>
            <feOffset dx="2" dy="1" in="shadowBlurInner1" result="shadowOffsetInner1"></feOffset>
            <feComposite in="shadowOffsetInner1" in2="SourceAlpha" operator="arithmetic" k2="-1" k3="1" result="shadowInnerInner1"></feComposite>
            <feColorMatrix values="0 0 0 0 0   0 0 0 0 0   0 0 0 0 0  0 0 0 0.5 0" type="matrix" in="shadowInnerInner1"></feColorMatrix>
        </filter>
        <linearGradient x1="46.1485673%" y1="14.9702258%" x2="60.3887652%" y2="122.662764%" id="linearGradient-14">
            <stop stop-color="#FC7272" offset="0%"></stop>
            <stop stop-color="#B24646" offset="100%"></stop>
        </linearGradient>
        <path d="M7,26 L13,26 L13,10.443965 C13,9.64654706 12.3769579,9 11.6083168,9 L8.39168323,9 C7.62304206,9 7,9.64654706 7,10.443965 L7,26 Z" id="path-15"></path>
        <filter x="-33.3%" y="-11.8%" width="166.7%" height="123.5%" filterUnits="objectBoundingBox" id="filter-16">
            <feGaussianBlur stdDeviation="1.5" in="SourceAlpha" result="shadowBlurInner1"></feGaussianBlur>
            <feOffset dx="0" dy="1" in="shadowBlurInner1" result="shadowOffsetInner1"></feOffset>
            <feComposite in="shadowOffsetInner1" in2="SourceAlpha" operator="arithmetic" k2="-1" k3="1" result="shadowInnerInner1"></feComposite>
            <feColorMatrix values="0 0 0 0 0   0 0 0 0 0   0 0 0 0 0  0 0 0 0.5 0" type="matrix" in="shadowInnerInner1"></feColorMatrix>
        </filter>
        <polygon id="path-17" points="0 0 6 0 6 25 0 25"></polygon>
        <linearGradient x1="48.2190975%" y1="14.9702258%" x2="54.803765%" y2="122.662764%" id="linearGradient-19">
            <stop stop-color="#FC7272" offset="0%"></stop>
            <stop stop-color="#B24646" offset="100%"></stop>
        </linearGradient>
        <linearGradient x1="19.0815542%" y1="36.9941913%" x2="133.398699%" y2="76.9781361%" id="linearGradient-20">
            <stop stop-color="#FC7272" offset="0%"></stop>
            <stop stop-color="#B24646" offset="100%"></stop>
        </linearGradient>
        <path d="M8.97851562,1.734375 L8.97851562,2.7734375 L9.70117188,2.7734375 L9.70117188,3.6015625 L8.97851562,3.6015625 L8.97851562,5.7109375 C8.97851562,5.86718828 9.00846324,5.97916633 9.06835938,6.046875 C9.12825551,6.11458367 9.2428377,6.1484375 9.41210938,6.1484375 C9.53711,6.1484375 9.64778598,6.13932301 9.74414062,6.12109375 L9.74414062,6.9765625 C9.52278535,7.04427117 9.29492305,7.078125 9.06054688,7.078125 C8.26887625,7.078125 7.86523445,6.67838941 7.84960938,5.87890625 L7.84960938,3.6015625 L7.23242188,3.6015625 L7.23242188,2.7734375 L7.84960938,2.7734375 L7.84960938,1.734375 L8.97851562,1.734375 Z M10.0371094,4.84765625 C10.0371094,4.42838332 10.1178377,4.05468914 10.2792969,3.7265625 C10.440756,3.39843586 10.6731756,3.14453215 10.9765625,2.96484375 C11.2799494,2.78515535 11.6321595,2.6953125 12.0332031,2.6953125 C12.6035185,2.6953125 13.0690086,2.86978992 13.4296875,3.21875 C13.7903664,3.56771008 13.9915362,4.04166367 14.0332031,4.640625 L14.0410156,4.9296875 C14.0410156,5.57812824 13.8600279,6.09830533 13.4980469,6.49023438 C13.1360659,6.88216342 12.6503937,7.078125 12.0410156,7.078125 C11.4316376,7.078125 10.9453143,6.88281445 10.5820312,6.4921875 C10.2187482,6.10156055 10.0371094,5.57031586 10.0371094,4.8984375 L10.0371094,4.84765625 Z M11.1660156,4.9296875 C11.1660156,5.33073117 11.2415357,5.63736873 11.3925781,5.84960938 C11.5436205,6.06185002 11.7597642,6.16796875 12.0410156,6.16796875 C12.3144545,6.16796875 12.527994,6.06315209 12.6816406,5.85351562 C12.8352872,5.64387916 12.9121094,5.30859605 12.9121094,4.84765625 C12.9121094,4.45442512 12.8352872,4.14974066 12.6816406,3.93359375 C12.527994,3.71744684 12.3118504,3.609375 12.0332031,3.609375 C11.7571601,3.609375 11.5436205,3.7167958 11.3925781,3.93164062 C11.2415357,4.14648545 11.1660156,4.47916441 11.1660156,4.9296875 Z M18.5410156,4.92578125 C18.5410156,5.57682617 18.3932306,6.09830533 18.0976562,6.49023438 C17.8020819,6.88216342 17.4029973,7.078125 16.9003906,7.078125 C16.4733052,7.078125 16.1282565,6.92968898 15.8652344,6.6328125 L15.8652344,8.625 L14.7363281,8.625 L14.7363281,2.7734375 L15.7832031,2.7734375 L15.8222656,3.1875 C16.0957045,2.85937336 16.4524718,2.6953125 16.8925781,2.6953125 C17.4134141,2.6953125 17.8183579,2.88801891 18.1074219,3.2734375 C18.3964858,3.65885609 18.5410156,4.19010078 18.5410156,4.8671875 L18.5410156,4.92578125 Z M17.4121094,4.84375 C17.4121094,4.45051887 17.3424486,4.14713648 17.203125,3.93359375 C17.0638014,3.72005102 16.8613295,3.61328125 16.5957031,3.61328125 C16.2415347,3.61328125 15.9980475,3.74869656 15.8652344,4.01953125 L15.8652344,5.75 C16.0032559,6.02864723 16.2493472,6.16796875 16.6035156,6.16796875 C17.1425808,6.16796875 17.4121094,5.72656691 17.4121094,4.84375 Z" id="path-21"></path>
        <linearGradient x1="19.0815542%" y1="48.7324459%" x2="133.398699%" y2="52.6293056%" id="linearGradient-22">
            <stop stop-color="#FC7272" offset="0%"></stop>
            <stop stop-color="#B24646" offset="100%"></stop>
        </linearGradient>
        <path d="M50.3134766,31.675293 C50.3134766,32.4018591 50.146486,32.9855935 49.8125,33.4265137 C49.478514,33.8674338 49.0302763,34.0878906 48.4677734,34.0878906 C47.8671845,34.0878906 47.4028337,33.8754904 47.074707,33.4506836 L47.0351562,34 L46.2880859,34 L46.2880859,27.25 L47.1010742,27.25 L47.1010742,29.7680664 C47.4292009,29.3608378 47.8818331,29.1572266 48.4589844,29.1572266 C49.0361357,29.1572266 49.4895003,29.3754861 49.8190918,29.8120117 C50.1486833,30.2485373 50.3134766,30.8461876 50.3134766,31.6049805 L50.3134766,31.675293 Z M49.5004883,31.5830078 C49.5004883,31.0292941 49.3935558,30.601564 49.1796875,30.2998047 C48.9658192,29.9980454 48.6582051,29.847168 48.2568359,29.847168 C47.7207004,29.847168 47.3354504,30.0961889 47.1010742,30.5942383 L47.1010742,32.6508789 C47.3500989,33.1489283 47.7382786,33.3979492 48.265625,33.3979492 C48.6552754,33.3979492 48.958495,33.2470718 49.175293,32.9453125 C49.3920909,32.6435532 49.5004883,32.1894562 49.5004883,31.5830078 Z M52.8447266,32.809082 L53.9521484,29.2451172 L54.8222656,29.2451172 L52.9106445,34.7338867 C52.6147446,35.5249063 52.1445345,35.9204102 51.5,35.9204102 L51.3461914,35.9072266 L51.0429688,35.8500977 L51.0429688,35.190918 L51.2626953,35.2084961 C51.5380873,35.2084961 51.7526848,35.1528326 51.9064941,35.0415039 C52.0603035,34.9301752 52.1870112,34.726564 52.2866211,34.4306641 L52.4667969,33.9472656 L50.7705078,29.2451172 L51.6582031,29.2451172 L52.8447266,32.809082 Z M58.5400391,29.2451172 L58.5620117,29.7724609 C58.9106463,29.3623026 59.3808564,29.1572266 59.9726562,29.1572266 C60.6376986,29.1572266 61.0903308,29.4121068 61.3305664,29.921875 C61.4887703,29.6933582 61.6945788,29.5087898 61.947998,29.3681641 C62.2014173,29.2275384 62.5009748,29.1572266 62.8466797,29.1572266 C63.8896537,29.1572266 64.4199218,29.7094671 64.4375,30.8139648 L64.4375,34 L63.6245117,34 L63.6245117,30.8623047 C63.6245117,30.5224592 63.5468758,30.2683114 63.3916016,30.0998535 C63.2363273,29.9313956 62.9755878,29.847168 62.609375,29.847168 C62.3076157,29.847168 62.0571299,29.937255 61.8579102,30.1174316 C61.6586904,30.2976083 61.5429689,30.5400375 61.5107422,30.8447266 L61.5107422,34 L60.6933594,34 L60.6933594,30.8842773 C60.6933594,30.1928676 60.3549839,29.847168 59.6782227,29.847168 C59.1450169,29.847168 58.7802744,30.0742165 58.5839844,30.5283203 L58.5839844,34 L57.7709961,34 L57.7709961,29.2451172 L58.5400391,29.2451172 Z M67.2192383,32.809082 L68.3266602,29.2451172 L69.1967773,29.2451172 L67.2851562,34.7338867 C66.9892563,35.5249063 66.5190462,35.9204102 65.8745117,35.9204102 L65.7207031,35.9072266 L65.4174805,35.8500977 L65.4174805,35.190918 L65.637207,35.2084961 C65.912599,35.2084961 66.1271965,35.1528326 66.2810059,35.0415039 C66.4348152,34.9301752 66.5615229,34.726564 66.6611328,34.4306641 L66.8413086,33.9472656 L65.1450195,29.2451172 L66.0327148,29.2451172 L67.2192383,32.809082 Z M74.4702148,28.2958984 L72.4135742,28.2958984 L72.4135742,34 L71.5742188,34 L71.5742188,28.2958984 L69.5219727,28.2958984 L69.5219727,27.6015625 L74.4702148,27.6015625 L74.4702148,28.2958984 Z M77.8100586,33.5297852 C77.4936508,33.9018573 77.0292999,34.0878906 76.4169922,34.0878906 C75.9101537,34.0878906 75.5241712,33.9406753 75.2590332,33.6462402 C74.9938952,33.3518052 74.8598633,32.9160185 74.8569336,32.3388672 L74.8569336,29.2451172 L75.6699219,29.2451172 L75.6699219,32.3168945 C75.6699219,33.0376013 75.9628877,33.3979492 76.5488281,33.3979492 C77.169925,33.3979492 77.5830068,33.1665062 77.7880859,32.7036133 L77.7880859,29.2451172 L78.6010742,29.2451172 L78.6010742,34 L77.8276367,34 L77.8100586,33.5297852 Z M80.6049805,29.2451172 L80.6313477,29.8427734 C80.9946307,29.3857399 81.4692354,29.1572266 82.0551758,29.1572266 C83.0600636,29.1572266 83.5668945,29.7241154 83.5756836,30.8579102 L83.5756836,34 L82.7626953,34 L82.7626953,30.8535156 C82.7597656,30.5107405 82.6813973,30.257325 82.5275879,30.0932617 C82.3737785,29.9291984 82.134279,29.847168 81.809082,29.847168 C81.5454088,29.847168 81.3139658,29.9174798 81.1147461,30.0581055 C80.9155263,30.1987312 80.7602545,30.3832996 80.6489258,30.6118164 L80.6489258,34 L79.8359375,34 L79.8359375,29.2451172 L80.6049805,29.2451172 Z M86.7749023,34.0878906 C86.1303679,34.0878906 85.6059591,33.8762228 85.2016602,33.4528809 C84.7973613,33.0295389 84.5952148,32.4633825 84.5952148,31.7543945 L84.5952148,31.6049805 C84.5952148,31.1332984 84.6853018,30.7121601 84.8654785,30.3415527 C85.0456552,29.9709454 85.2976058,29.6809093 85.6213379,29.4714355 C85.94507,29.2619618 86.2958965,29.1572266 86.6738281,29.1572266 C87.2919953,29.1572266 87.7724592,29.3608378 88.1152344,29.7680664 C88.4580095,30.175295 88.6293945,30.758297 88.6293945,31.5170898 L88.6293945,31.8554688 L85.4082031,31.8554688 C85.4199219,32.3242211 85.5568835,32.7028794 85.8190918,32.9914551 C86.0813001,33.2800307 86.4145488,33.4243164 86.8188477,33.4243164 C87.1059585,33.4243164 87.3491201,33.3657232 87.5483398,33.2485352 C87.7475596,33.1313471 87.9218743,32.9760752 88.0712891,32.7827148 L88.5678711,33.1694336 C88.1694316,33.7817413 87.5717813,34.0878906 86.7749023,34.0878906 Z M86.6738281,29.8251953 C86.3457015,29.8251953 86.0703136,29.9445789 85.8476562,30.1833496 C85.6249989,30.4221203 85.487305,30.7568338 85.4345703,31.1875 L87.8164062,31.1875 L87.8164062,31.1259766 C87.7929686,30.7128886 87.6816416,30.3928234 87.4824219,30.1657715 C87.2832021,29.9387196 87.0136736,29.8251953 86.6738281,29.8251953 Z M91.8681641,29.9746094 C91.7451166,29.9541015 91.6118171,29.9438477 91.4682617,29.9438477 C90.9350559,29.9438477 90.5732431,30.1708962 90.3828125,30.625 L90.3828125,34 L89.5698242,34 L89.5698242,29.2451172 L90.3608398,29.2451172 L90.3740234,29.7944336 C90.6406263,29.3696268 91.0185522,29.1572266 91.5078125,29.1572266 C91.6660164,29.1572266 91.7861324,29.1777342 91.8681641,29.21875 L91.8681641,29.9746094 Z" id="path-23"></path>
    </defs>
    <g id="Page-1" stroke="none" stroke-width="1" fill="none" fill-rule="evenodd">
        <g id="_1200_00_A_Home" transform="translate(-12.000000, -26.000000)">
            <g id="_01_Header">
                <g id="Logo_TopCharts" transform="translate(12.000000, 25.000000)">
                    <g id="Fill-1">
                        <use fill="#474747" fill-rule="evenodd" xlink:href="#path-1"></use>
                        <use fill="black" fill-opacity="1" filter="url(#filter-2)" xlink:href="#path-1"></use>
                    </g>
                    <g id="Fill-3">
                        <use fill="#474747" fill-rule="evenodd" xlink:href="#path-3"></use>
                        <use fill="black" fill-opacity="1" filter="url(#filter-4)" xlink:href="#path-3"></use>
                    </g>
                    <g id="Fill-5">
                        <use fill="#474747" fill-rule="evenodd" xlink:href="#path-5"></use>
                        <use fill="black" fill-opacity="1" filter="url(#filter-6)" xlink:href="#path-5"></use>
                    </g>
                    <g id="Fill-7">
                        <use fill="#474747" fill-rule="evenodd" xlink:href="#path-7"></use>
                        <use fill="black" fill-opacity="1" filter="url(#filter-8)" xlink:href="#path-7"></use>
                    </g>
                    <g id="Fill-9">
                        <use fill="url(#linearGradient-9)" fill-rule="evenodd" xlink:href="#path-10"></use>
                        <use fill="black" fill-opacity="1" filter="url(#filter-11)" xlink:href="#path-10"></use>
                    </g>
                    <g id="Fill-11">
                        <use fill="#474747" fill-rule="evenodd" xlink:href="#path-12"></use>
                        <use fill="black" fill-opacity="1" filter="url(#filter-13)" xlink:href="#path-12"></use>
                    </g>
                    <g id="Fill-13">
                        <use fill="url(#linearGradient-14)" fill-rule="evenodd" xlink:href="#path-15"></use>
                        <use fill="black" fill-opacity="1" filter="url(#filter-16)" xlink:href="#path-15"></use>
                    </g>
                    <g id="Group-23" transform="translate(0.000000, 1.000000)">
                        <mask id="mask-18" fill="white">
                            <use xlink:href="#path-17"></use>
                        </mask>
                        <g id="Clip-22"></g>
                        <path d="M0,25 L6,25 L6,1.59635943 C6,0.714673461 5.37687244,0 4.60824349,0 L1.3916611,0 C0.623127564,0 0,0.714673461 0,1.59635943 L0,25 Z" id="Fill-21" fill="url(#linearGradient-19)" mask="url(#mask-18)"></path>
                    </g>
                    <path d="M1,27 L5,27 L5,3.41454288 C5,2.63322497 4.58467103,2 4.07220866,2 L1.92779134,2 C1.41540024,2 1,2.63322497 1,3.41454288 L1,27 Z" id="Fill-24" fill="#FFFFFF"></path>
                    <g id="top" fill-rule="nonzero">
                        <use fill="#434343" xlink:href="#path-21"></use>
                        <use fill="url(#linearGradient-20)" xlink:href="#path-21"></use>
                    </g>
                    <g id="bymyTuner" fill-rule="nonzero">
                        <use fill="#434343" xlink:href="#path-23"></use>
                        <use fill="url(#linearGradient-22)" xlink:href="#path-23"></use>
                    </g>
                </g>
            </g>
        </g>
    </g>
</svg>