<?xml version="1.0" encoding="UTF-8"?>
<svg width="92px" height="34px" viewBox="0 0 92 34" version="1.1" xmlns="http://www.w3.org/2000/svg" xmlns:xlink="http://www.w3.org/1999/xlink">
    <!-- Generator: Sketch 56.2 (81672) - https://sketch.com -->
    <title>Logo_TopCharts</title>
    <desc>Created with Sketch.</desc>
    <defs>
        <path d="M22.177736,26 C17.496258,26 14,22.3538373 14,17.5135472 C14,12.6461627 17.496258,9 22.177736,9 C26.2086119,9 29.3306938,11.7993171 29.9558245,15.9022266 L25.6626212,15.9022266 C25.1345826,14.2426506 23.8056512,13.1651078 22.1869471,13.1651078 C20.0090936,13.1651078 18.4116313,15.0076199 18.4116313,17.5131516 C18.4116313,20.0090915 20.0090936,21.8249049 22.1869471,21.8249049 C23.8935323,21.8249049 25.2352464,20.6549052 25.6660988,18.8567922 L30,18.8567922 C29.4152852,23.1115881 26.2744992,25.9997033 22.177736,25.9997033 L22.177736,26 Z" id="path-1"></path>
        <filter x="-15.6%" y="-14.7%" width="131.2%" height="129.4%" filterUnits="objectBoundingBox" id="filter-2">
            <feGaussianBlur stdDeviation="1.5" in="SourceAlpha" result="shadowBlurInner1"></feGaussianBlur>
            <feOffset dx="2" dy="1" in="shadowBlurInner1" result="shadowOffsetInner1"></feOffset>
            <feComposite in="shadowOffsetInner1" in2="SourceAlpha" operator="arithmetic" k2="-1" k3="1" result="shadowInnerInner1"></feComposite>
            <feColorMatrix values="0 0 0 0 0   0 0 0 0 0   0 0 0 0 0  0 0 0 0.5 0" type="matrix" in="shadowInnerInner1"></feColorMatrix>
        </filter>
        <path d="M44,26 L39.470221,26 L39.470221,18.978577 C39.470221,17.5380416 38.9372446,16.8037247 37.7551328,16.8037247 C36.3844582,16.8037247 35.5298832,17.7276066 35.5298832,19.3303012 L35.5298832,26 L31,26 L31,9 L35.5298832,9 L35.5298832,14.3319598 C36.498221,13.5913109 37.7298174,13.1408468 39.0405895,13.1408468 C42.0597823,13.1408468 44,15.2413968 44,18.4787429 L44,26 Z" id="path-3"></path>
        <filter x="-19.2%" y="-14.7%" width="138.5%" height="129.4%" filterUnits="objectBoundingBox" id="filter-4">
            <feGaussianBlur stdDeviation="1.5" in="SourceAlpha" result="shadowBlurInner1"></feGaussianBlur>
            <feOffset dx="2" dy="1" in="shadowBlurInner1" result="shadowOffsetInner1"></feOffset>
            <feComposite in="shadowOffsetInner1" in2="SourceAlpha" operator="arithmetic" k2="-1" k3="1" result="shadowInnerInner1"></feComposite>
            <feColorMatrix values="0 0 0 0 0   0 0 0 0 0   0 0 0 0 0  0 0 0 0.5 0" type="matrix" in="shadowInnerInner1"></feColorMatrix>
        </filter>
        <path d="M55.2037169,18.9860327 C55.2037169,17.2780648 54.1047711,15.9954733 52.6097385,15.9954733 C51.1057102,15.9954733 50.0157602,17.2780648 50.0157602,18.9860327 C50.0157602,20.7043197 51.1147059,21.9870155 52.6097385,21.9870155 C54.1047711,21.9870155 55.2037169,20.7043197 55.2037169,18.9860327 L55.2037169,18.9860327 Z M59,12.3966079 L59,25.5549235 L55.9143783,25.5549235 L55.572633,24.6243281 C54.6236769,25.4971783 53.421923,26 52.0761458,26 C48.5327524,26 46,23.0647885 46,18.9755052 C46,14.9003976 48.5327524,12 52.0761458,12 C53.4408324,12 54.6598434,12.5174144 55.6167854,13.4139256 L56.0250807,12.3962952 L59,12.3966079 Z" id="path-5"></path>
        <filter x="-19.2%" y="-17.9%" width="138.5%" height="135.7%" filterUnits="objectBoundingBox" id="filter-6">
            <feGaussianBlur stdDeviation="1.5" in="SourceAlpha" result="shadowBlurInner1"></feGaussianBlur>
            <feOffset dx="2" dy="1" in="shadowBlurInner1" result="shadowOffsetInner1"></feOffset>
            <feComposite in="shadowOffsetInner1" in2="SourceAlpha" operator="arithmetic" k2="-1" k3="1" result="shadowInnerInner1"></feComposite>
            <feColorMatrix values="0 0 0 0 0   0 0 0 0 0   0 0 0 0 0  0 0 0 0.5 0" type="matrix" in="shadowInnerInner1"></feColorMatrix>
        </filter>
        <path d="M70,13 L70,17.0782324 L68.3571602,17.0782324 C66.8590336,17.0782324 66.2315216,17.7701514 66.2315216,19.4205692 L66.2315216,26 L62,26 L62,13.0616998 L64.8348985,13.0616998 L65.4951097,14.4975008 C66.3614423,13.4420451 67.416768,13 68.878984,13 L70,13 Z" id="path-7"></path>
        <filter x="-31.2%" y="-19.2%" width="162.5%" height="138.5%" filterUnits="objectBoundingBox" id="filter-8">
            <feGaussianBlur stdDeviation="1.5" in="SourceAlpha" result="shadowBlurInner1"></feGaussianBlur>
            <feOffset dx="2" dy="1" in="shadowBlurInner1" result="shadowOffsetInner1"></feOffset>
            <feComposite in="shadowOffsetInner1" in2="SourceAlpha" operator="arithmetic" k2="-1" k3="1" result="shadowInnerInner1"></feComposite>
            <feColorMatrix values="0 0 0 0 0   0 0 0 0 0   0 0 0 0 0  0 0 0 0.5 0" type="matrix" in="shadowInnerInner1"></feColorMatrix>
        </filter>
        <linearGradient x1="45.0530487%" y1="14.9702258%" x2="63.3437918%" y2="122.662764%" id="linearGradient-9">
            <stop stop-color="#FC7272" offset="0%"></stop>
            <stop stop-color="#B24646" offset="100%"></stop>
        </linearGradient>
        <path d="M79,22.282087 L79,26 L76.5555578,26 C74.2743726,26 72.8879958,24.3339923 72.8879958,21.5954176 L72.8879958,12.8719646 L71,12.8719646 L71,11.8797401 L75.6214469,6 L76.351364,6 L76.351364,9.60311022 L78.9427212,9.60311022 L78.9427212,12.8719646 L76.4409184,12.8719646 L76.4409184,20.8671616 C76.4409184,21.7497572 76.8867292,22.282087 77.6363386,22.282087 L79,22.282087 Z" id="path-10"></path>
        <filter x="-31.2%" y="-12.5%" width="162.5%" height="125.0%" filterUnits="objectBoundingBox" id="filter-11">
            <feGaussianBlur stdDeviation="1.5" in="SourceAlpha" result="shadowBlurInner1"></feGaussianBlur>
            <feOffset dx="2" dy="1" in="shadowBlurInner1" result="shadowOffsetInner1"></feOffset>
            <feComposite in="shadowOffsetInner1" in2="SourceAlpha" operator="arithmetic" k2="-1" k3="1" result="shadowInnerInner1"></feComposite>
            <feColorMatrix values="0 0 0 0 0   0 0 0 0 0   0 0 0 0 0  0 0 0 0.5 0" type="matrix" in="shadowInnerInner1"></feColorMatrix>
        </filter>
        <path d="M86.4954629,25.9997918 C83.1017431,25.9997918 81.0393541,24.1085694 81,21.2617963 L85.1280329,21.2617963 C85.1280329,22.2226551 85.7619389,22.6649915 86.575256,22.6649915 C87.2025537,22.6649915 87.7972042,22.3272546 87.7972042,21.6481381 C87.7972042,20.8903377 86.8546796,20.6742694 85.6584743,20.4654866 C83.7277585,20.1353475 81.1683643,19.5205519 81.1683643,16.3338562 C81.1683643,13.7001331 83.2952585,12 86.4854025,12 C89.6561161,12 91.7110091,13.7798577 91.7598318,16.4420985 L87.7437459,16.4420985 C87.7437459,15.6031164 87.2092606,15.2131318 86.43224,15.2131318 C85.7446784,15.2131318 85.2827861,15.572309 85.2827861,16.1812762 C85.2827861,16.9289808 86.2350752,17.1030012 87.4179653,17.3255224 C89.3847802,17.6941708 92,18.1255789 92,21.457361 C92,24.2031774 89.803965,26 86.4946739,26 L86.4954629,25.9997918 Z" id="path-12"></path>
        <filter x="-22.7%" y="-17.9%" width="145.5%" height="135.7%" filterUnits="objectBoundingBox" id="filter-13">
            <feGaussianBlur stdDeviation="1.5" in="SourceAlpha" result="shadowBlurInner1"></feGaussianBlur>
            <feOffset dx="2" dy="1" in="shadowBlurInner1" result="shadowOffsetInner1"></feOffset>
            <feComposite in="shadowOffsetInner1" in2="SourceAlpha" operator="arithmetic" k2="-1" k3="1" result="shadowInnerInner1"></feComposite>
            <feColorMatrix values="0 0 0 0 0   0 0 0 0 0   0 0 0 0 0  0 0 0 0.5 0" type="matrix" in="shadowInnerInner1"></feColorMatrix>
        </filter>
        <linearGradient x1="46.1485673%" y1="14.9702258%" x2="60.3887652%" y2="122.662764%" id="linearGradient-14">
            <stop stop-color="#FC7272" offset="0%"></stop>
            <stop stop-color="#B24646" offset="100%"></stop>
        </linearGradient>
        <path d="M7,26 L13,26 L13,10.443965 C13,9.64654706 12.3769579,9 11.6083168,9 L8.39168323,9 C7.62304206,9 7,9.64654706 7,10.443965 L7,26 Z" id="path-15"></path>
        <filter x="-33.3%" y="-11.8%" width="166.7%" height="123.5%" filterUnits="objectBoundingBox" id="filter-16">
            <feGaussianBlur stdDeviation="1.5" in="SourceAlpha" result="shadowBlurInner1"></feGaussianBlur>
            <feOffset dx="0" dy="1" in="shadowBlurInner1" result="shadowOffsetInner1"></feOffset>
            <feComposite in="shadowOffsetInner1" in2="SourceAlpha" operator="arithmetic" k2="-1" k3="1" result="shadowInnerInner1"></feComposite>
            <feColorMatrix values="0 0 0 0 0   0 0 0 0 0   0 0 0 0 0  0 0 0 0.5 0" type="matrix" in="shadowInnerInner1"></feColorMatrix>
        </filter>
        <polygon id="path-17" points="0 0 6 0 6 25 0 25"></polygon>
        <linearGradient x1="48.2190975%" y1="14.9702258%" x2="54.803765%" y2="122.662764%" id="linearGradient-19">
            <stop stop-color="#FC7272" offset="0%"></stop>
            <stop stop-color="#B24646" offset="100%"></stop>
        </linearGradient>
        <linearGradient x1="19.0815542%" y1="32.1276662%" x2="133.398699%" y2="87.0728389%" id="linearGradient-20">
            <stop stop-color="#FC7272" offset="0%"></stop>
            <stop stop-color="#B24646" offset="100%"></stop>
        </linearGradient>
    </defs>
    <g id="Page-1" stroke="none" stroke-width="1" fill="none" fill-rule="evenodd">
        <g id="_576_01_A_Hamburguer" transform="translate(-12.000000, -26.000000)">
            <g id="Logo_TopCharts" transform="translate(12.000000, 25.000000)">
                <g id="Fill-1">
                    <use fill="#FFFFFF" fill-rule="evenodd" xlink:href="#path-1"></use>
                    <use fill="black" fill-opacity="1" filter="url(#filter-2)" xlink:href="#path-1"></use>
                </g>
                <g id="Fill-3">
                    <use fill="#FFFFFF" fill-rule="evenodd" xlink:href="#path-3"></use>
                    <use fill="black" fill-opacity="1" filter="url(#filter-4)" xlink:href="#path-3"></use>
                </g>
                <g id="Fill-5">
                    <use fill="#FFFFFF" fill-rule="evenodd" xlink:href="#path-5"></use>
                    <use fill="black" fill-opacity="1" filter="url(#filter-6)" xlink:href="#path-5"></use>
                </g>
                <g id="Fill-7">
                    <use fill="#FFFFFF" fill-rule="evenodd" xlink:href="#path-7"></use>
                    <use fill="black" fill-opacity="1" filter="url(#filter-8)" xlink:href="#path-7"></use>
                </g>
                <g id="Fill-9">
                    <use fill="url(#linearGradient-9)" fill-rule="evenodd" xlink:href="#path-10"></use>
                    <use fill="black" fill-opacity="1" filter="url(#filter-11)" xlink:href="#path-10"></use>
                </g>
                <g id="Fill-11">
                    <use fill="#FFFFFF" fill-rule="evenodd" xlink:href="#path-12"></use>
                    <use fill="black" fill-opacity="1" filter="url(#filter-13)" xlink:href="#path-12"></use>
                </g>
                <g id="Fill-13">
                    <use fill="url(#linearGradient-14)" fill-rule="evenodd" xlink:href="#path-15"></use>
                    <use fill="black" fill-opacity="1" filter="url(#filter-16)" xlink:href="#path-15"></use>
                </g>
                <g id="Group-23" transform="translate(0.000000, 1.000000)">
                    <mask id="mask-18" fill="white">
                        <use xlink:href="#path-17"></use>
                    </mask>
                    <g id="Clip-22"></g>
                    <path d="M0,25 L6,25 L6,1.59635943 C6,0.714673461 5.37687244,0 4.60824349,0 L1.3916611,0 C0.623127564,0 0,0.714673461 0,1.59635943 L0,25 Z" id="Fill-21" fill="url(#linearGradient-19)" mask="url(#mask-18)"></path>
                </g>
                <path d="M1,27 L5,27 L5,3.41454288 C5,2.63322497 4.58467103,2 4.07220866,2 L1.92779134,2 C1.41540024,2 1,2.63322497 1,3.41454288 L1,27 Z" id="Fill-24" fill="#FFFFFF"></path>
                <text id="top" fill="url(#linearGradient-20)" font-family="Roboto-Bold, Roboto" font-size="8" font-weight="bold">
                    <tspan x="7.19335938" y="7">top</tspan>
                </text>
                <text id="by-myTuner" fill="#FFFFFF" font-family="Roboto-Regular, Roboto" font-size="9" font-weight="normal">
                    <tspan x="45.6728516" y="34">by myTuner</tspan>
                </text>
            </g>
        </g>
    </g>
</svg>