<?xml version="1.0" encoding="UTF-8"?>
<svg width="35px" height="32px" viewBox="0 0 35 32" version="1.1" xmlns="http://www.w3.org/2000/svg" xmlns:xlink="http://www.w3.org/1999/xlink">
    <!-- Generator: Sketch 61.2 (89653) - https://sketch.com -->
    <title>Star</title>
    <desc>Created with Sketch.</desc>
    <defs>
        <linearGradient x1="13.2858783%" y1="0%" x2="80.9171248%" y2="247.1604%" id="linearGradient-1">
            <stop stop-color="#FFE7E4" offset="0%"></stop>
            <stop stop-color="#D41200" offset="100%"></stop>
        </linearGradient>
    </defs>
    <g id="Page-1" stroke="none" stroke-width="1" fill="none" fill-rule="evenodd">
        <g id="_1200_016_Top_Album_Detail" transform="translate(-22.000000, -1612.000000)" fill="url(#linearGradient-1)">
            <g id="01-copy" transform="translate(14.000000, 1602.000000)">
                <path d="M25.5,37.9654715 L17.2930279,41.7678348 C16.2907999,42.232176 15.1019106,41.7961326 14.6375695,40.7939045 C14.4814298,40.4568947 14.4222207,40.0830629 14.4665765,39.7142977 L15.5467451,30.7340086 L15.5467451,30.7340086 L9.39438887,24.1037092 C8.64306866,23.294023 8.69038364,22.0285773 9.50006983,21.2772571 C9.77233541,21.0246177 10.109574,20.8527861 10.4739972,20.7810163 L19.3485502,19.0332557 L19.3485502,19.0332557 L23.753157,11.133142 C24.2910436,10.1683872 25.5091751,9.82234222 26.4739299,10.3602288 C26.7983389,10.5410989 27.065973,10.808733 27.246843,11.133142 L31.6514498,19.0332557 L31.6514498,19.0332557 L40.5260028,20.7810163 C41.6097552,20.9944512 42.3152869,22.0460294 42.1018519,23.1297818 C42.0300822,23.494205 41.8582505,23.8314436 41.6056111,24.1037092 L35.4532549,30.7340086 L35.4532549,30.7340086 L36.5334235,39.7142977 C36.6653327,40.8109625 35.8832437,41.8069186 34.7865789,41.9388278 C34.4178137,41.9831836 34.0439819,41.9239745 33.7069721,41.7678348 L25.5,37.9654715 L25.5,37.9654715 Z" id="Star"></path>
            </g>
        </g>
    </g>
</svg>