<?xml version="1.0" encoding="UTF-8"?>
<svg width="173px" height="54px" viewBox="0 0 173 54" version="1.1" xmlns="http://www.w3.org/2000/svg" xmlns:xlink="http://www.w3.org/1999/xlink">
    <!-- Generator: Sketch 56.2 (81672) - https://sketch.com -->
    <title>MyTunerLogo</title>
    <desc>Created with Sketch.</desc>
    <defs>
        <polygon id="path-1" points="0.152317987 0.125314617 26.4836515 0.125314617 26.4836515 35.3995792 0.152317987 35.3995792"></polygon>
        <path d="M0.275197544,0.217107138 C0.204980654,0.269540032 0.152317987,1.68522818 0.152317987,3.3630808 L0.152317987,6.38671104 L5.24304246,6.38671104 L10.3337669,6.38671104 L10.3337669,20.8931451 L10.3337669,35.3995792 L13.3179847,35.3995792 L16.3022025,35.3995792 L16.3022025,20.8931451 L16.3022025,6.38671104 L21.392927,6.38671104 L26.4836515,6.38671104 L26.448543,3.27569264 L26.3958804,0.182151875 L13.3882016,0.129718981 C6.24363314,0.112241349 0.327860211,0.147196612 0.275197544,0.217107138" id="path-3"></path>
        <filter x="-9.5%" y="-7.1%" width="119.0%" height="114.2%" filterUnits="objectBoundingBox" id="filter-4">
            <feGaussianBlur stdDeviation="1.5" in="SourceAlpha" result="shadowBlurInner1"></feGaussianBlur>
            <feOffset dx="2" dy="1" in="shadowBlurInner1" result="shadowOffsetInner1"></feOffset>
            <feComposite in="shadowOffsetInner1" in2="SourceAlpha" operator="arithmetic" k2="-1" k3="1" result="shadowInnerInner1"></feComposite>
            <feColorMatrix values="0 0 0 0 0   0 0 0 0 0   0 0 0 0 0  0 0 0 0.5 0" type="matrix" in="shadowInnerInner1"></feColorMatrix>
        </filter>
        <path d="M109.955156,27.9873278 L109.308529,28.6738474 L109.138409,28.0053941 C109.053348,27.6440679 108.883228,26.9033494 108.781326,26.3794265 L108.577182,25.4399786 L105.821062,25.4761112 L103.082294,25.5303101 L103.082294,38.7187138 L103.082294,51.9071174 L106.484701,51.9071174 L109.887108,51.9071174 L109.921132,43.5966165 C109.955156,34.2021372 109.887108,34.6537948 111.316119,33.5156175 C114.412139,31.0044009 118.052885,30.769539 119.345629,32.9736283 L119.754088,33.660148 L119.839148,42.7836327 L119.924208,51.9071174 L123.292591,51.9613164 L126.643962,51.997449 L126.643962,43.1810915 C126.643962,36.0449004 126.592926,34.0214741 126.388781,32.7387663 C125.504155,27.3369407 122.033701,24.934122 115.875344,25.4580449 C113.374575,25.6748405 111.299107,26.5600896 109.955156,27.9873278 Z" id="path-5"></path>
        <filter x="-10.6%" y="-9.4%" width="121.2%" height="118.8%" filterUnits="objectBoundingBox" id="filter-6">
            <feGaussianBlur stdDeviation="1.5" in="SourceAlpha" result="shadowBlurInner1"></feGaussianBlur>
            <feOffset dx="2" dy="1" in="shadowBlurInner1" result="shadowOffsetInner1"></feOffset>
            <feComposite in="shadowOffsetInner1" in2="SourceAlpha" operator="arithmetic" k2="-1" k3="1" result="shadowInnerInner1"></feComposite>
            <feColorMatrix values="0 0 0 0 0   0 0 0 0 0   0 0 0 0 0  0 0 0 0.5 0" type="matrix" in="shadowInnerInner1"></feColorMatrix>
        </filter>
        <path d="M75.187447,34.9274209 C75.2551529,44.2860683 75.2551529,44.5213921 75.6444621,45.9152332 C76.4230804,48.7570399 77.9972435,50.476714 80.6208487,51.3818057 C81.8226291,51.7983288 82.2796442,51.8526343 84.2769695,51.8526343 C87.713046,51.8526343 90.2012393,51.0380519 91.656917,49.4450906 C92.3678294,48.64861 92.5709472,48.5760216 92.5709472,49.0830539 C92.5709472,49.2640723 92.6894326,50.0062474 92.841771,50.7122189 L93.1125947,51.997449 L95.8548546,51.9612453 L98.5798494,51.9069398 L98.6306289,38.6382965 L98.6644819,25.3877551 L95.2453319,25.4239588 L91.8092554,25.4782643 L91.7754024,33.7145981 C91.7584759,38.2400562 91.69077,42.1138484 91.656917,42.3308894 C91.6061376,42.5301905 91.2847036,43.0008382 90.9461739,43.3809767 C88.6778556,45.8790296 84.4462343,46.7298157 82.8720712,44.9739379 C81.9072616,43.887828 81.9072616,43.9240317 81.9072616,34.2576531 L81.9072616,25.3877551 L78.5050381,25.3877551 L75.1028145,25.3877551 L75.187447,34.9274209 Z" id="path-7"></path>
        <filter x="-10.6%" y="-9.4%" width="121.2%" height="118.8%" filterUnits="objectBoundingBox" id="filter-8">
            <feGaussianBlur stdDeviation="1.5" in="SourceAlpha" result="shadowBlurInner1"></feGaussianBlur>
            <feOffset dx="2" dy="1" in="shadowBlurInner1" result="shadowOffsetInner1"></feOffset>
            <feComposite in="shadowOffsetInner1" in2="SourceAlpha" operator="arithmetic" k2="-1" k3="1" result="shadowInnerInner1"></feComposite>
            <feColorMatrix values="0 0 0 0 0   0 0 0 0 0   0 0 0 0 0  0 0 0 0.5 0" type="matrix" in="shadowInnerInner1"></feColorMatrix>
        </filter>
        <path d="M146.625267,31.7164681 C148.064854,32.3944287 148.914731,33.5854406 149.209586,35.2528573 L149.330997,35.9491412 L144.630657,35.9491412 L139.912973,35.9491412 L140.034384,35.3444736 C140.381273,33.6770569 141.248494,32.3944287 142.462604,31.8080844 C143.572647,31.2583866 145.584601,31.2034168 146.625267,31.7164681 M142.202438,25.4315899 C139.27123,26.0179342 137.467409,26.8791275 135.837033,28.5098976 C133.998524,30.3055771 133.009891,32.5043683 132.749725,35.3078271 C132.697692,36.0224342 132.61097,36.993567 132.558936,37.488295 C132.437525,38.7342767 132.784414,41.8675542 133.20068,43.3700615 C134.189313,46.8881274 136.478777,49.5633234 139.583429,50.809305 C142.757459,52.07361 148.498465,52.3667821 153.875237,51.5057721 L155.210758,51.3040331 L155.210758,48.4639278 C155.210758,45.8620248 155.193413,45.6423289 154.915903,45.7339452 C153.77117,46.081904 150.250252,46.4300459 147.926099,46.4300459 C145.77539,46.4300459 144.960202,46.3384296 143.850158,46.0452574 C141.352561,45.3489736 140.051729,44.1029919 139.826251,42.2340194 L139.722185,41.2812098 L147.631243,41.2262401 C151.96735,41.1895935 155.574991,41.1163005 155.627024,41.0615139 C155.835157,40.8414516 156.095324,38.1296091 156.095324,36.0407575 C156.112668,33.6587337 155.817813,31.918024 155.193413,30.580426 C154.100715,28.2900185 152.400961,26.7875112 149.955397,25.9446412 C148.671909,25.504883 148.238298,25.4499132 145.584601,25.3949434 C143.971569,25.3766201 142.44526,25.3949434 142.202438,25.4315899" id="path-9"></path>
        <filter x="-10.6%" y="-9.4%" width="121.2%" height="118.8%" filterUnits="objectBoundingBox" id="filter-10">
            <feGaussianBlur stdDeviation="1.5" in="SourceAlpha" result="shadowBlurInner1"></feGaussianBlur>
            <feOffset dx="2" dy="1" in="shadowBlurInner1" result="shadowOffsetInner1"></feOffset>
            <feComposite in="shadowOffsetInner1" in2="SourceAlpha" operator="arithmetic" k2="-1" k3="1" result="shadowInnerInner1"></feComposite>
            <feColorMatrix values="0 0 0 0 0   0 0 0 0 0   0 0 0 0 0  0 0 0 0.5 0" type="matrix" in="shadowInnerInner1"></feColorMatrix>
        </filter>
        <path d="M157.56865,38.692602 L157.56865,51.997449 L161.250161,51.997449 L164.912792,51.997449 L164.96943,43.4677663 L165.026069,34.9198578 L165.554696,34.2455025 C165.856769,33.8809862 166.498673,33.3342116 166.970662,33.0243727 C167.858,32.495824 170.217943,31.7121139 171.596149,31.493404 L172.294692,31.3840491 L172.294692,28.395015 L172.294692,25.3877551 L171.709426,25.3877551 C170.123545,25.3877551 167.386012,26.4448525 165.554696,27.7753372 C165.007189,28.1580794 164.535201,28.4861441 164.478562,28.4861441 C164.440803,28.4861441 164.214249,27.793563 163.968815,26.9369496 L163.553465,25.3877551 L160.551618,25.3877551 L157.56865,25.3877551 L157.56865,38.692602 Z" id="path-11"></path>
        <filter x="-17.0%" y="-9.4%" width="134.0%" height="118.8%" filterUnits="objectBoundingBox" id="filter-12">
            <feGaussianBlur stdDeviation="1.5" in="SourceAlpha" result="shadowBlurInner1"></feGaussianBlur>
            <feOffset dx="2" dy="1" in="shadowBlurInner1" result="shadowOffsetInner1"></feOffset>
            <feComposite in="shadowOffsetInner1" in2="SourceAlpha" operator="arithmetic" k2="-1" k3="1" result="shadowInnerInner1"></feComposite>
            <feColorMatrix values="0 0 0 0 0   0 0 0 0 0   0 0 0 0 0  0 0 0 0.5 0" type="matrix" in="shadowInnerInner1"></feColorMatrix>
        </filter>
        <polygon id="path-13" points="0 0.100814878 27.80967 0.100814878 27.80967 28.0878672 0 28.0878672"></polygon>
        <linearGradient x1="19.0815542%" y1="48.7404734%" x2="133.398699%" y2="52.6126541%" id="linearGradient-15">
            <stop stop-color="#FC7272" offset="0%"></stop>
            <stop stop-color="#B24646" offset="100%"></stop>
        </linearGradient>
        <path d="M47.5896953,5.86896126 L47.5896953,8.93048469 L46.5584453,8.93048469 L46.5584453,1.11017219 L49.4427226,1.11017219 C50.2985211,1.11017219 50.969006,1.32859449 51.4541972,1.76544563 C51.9393884,2.20229677 52.1819804,2.78057875 52.1819804,3.50030891 C52.1819804,4.25942729 51.9447595,4.84397548 51.4703105,5.25397102 C50.9958615,5.66396656 50.3164249,5.86896126 49.4319804,5.86896126 L47.5896953,5.86896126 Z M47.5896953,5.02569954 L49.4427226,5.02569954 C49.9941576,5.02569954 50.4166795,4.8958994 50.7103007,4.63629524 C51.003922,4.37669108 51.1507304,4.00161345 51.1507304,3.5110511 C51.1507304,3.04555398 51.003922,2.67316187 50.7103007,2.3938636 C50.4166795,2.11456533 50.0138515,1.96954725 49.5018046,1.95880501 L47.5896953,1.95880501 L47.5896953,5.02569954 Z M53.0091288,5.97101204 C53.0091288,5.40167325 53.1210255,4.8896341 53.3448222,4.43487923 C53.5686189,3.98012435 53.8801392,3.6292164 54.2793925,3.38214485 C54.6786458,3.1350733 55.134289,3.01153938 55.6463359,3.01153938 C56.437681,3.01153938 57.0777299,3.28546242 57.5665019,3.83331673 C58.0552739,4.38117103 58.2996562,5.10984213 58.2996562,6.01935188 L58.2996562,6.0891761 C58.2996562,6.65493414 58.1913402,7.16249742 57.974705,7.61188118 C57.7580698,8.06126494 57.4483398,8.41127771 57.0455058,8.66193001 C56.6426718,8.9125823 56.1798671,9.03790657 55.6570781,9.03790657 C54.8693137,9.03790657 54.2310551,8.76398353 53.7422831,8.21612923 C53.2535112,7.66827492 53.0091288,6.94318452 53.0091288,6.04083626 L53.0091288,5.97101204 Z M54.0081523,6.0891761 C54.0081523,6.73371057 54.1576462,7.25112076 54.4566386,7.64142219 C54.755631,8.03172362 55.1557735,8.22687141 55.6570781,8.22687141 C56.1619634,8.22687141 56.5630011,8.0290381 56.8602031,7.63336555 C57.1574051,7.237693 57.3060038,6.6835807 57.3060038,5.97101204 C57.3060038,5.33363906 57.1547196,4.81712404 56.8521464,4.42145149 C56.5495733,4.02577894 56.1476405,3.82794563 55.6463359,3.82794563 C55.1557735,3.82794563 54.7601069,4.02309342 54.4593242,4.41339485 C54.1585414,4.80369628 54.0081523,5.36228444 54.0081523,6.0891761 Z M64.6912578,7.56085579 L65.8084453,3.11896126 L66.8020976,3.11896126 L65.1102031,8.93048469 L64.304539,8.93048469 L62.8919413,4.52618782 L61.5169413,8.93048469 L60.7112773,8.93048469 L59.0247538,3.11896126 L60.0130351,3.11896126 L61.1570781,7.46954719 L62.5105937,3.11896126 L63.3108867,3.11896126 L64.6912578,7.56085579 Z M70.2234843,9.03790657 C69.43572,9.03790657 68.7947759,8.77920147 68.3006328,8.26178352 C67.8064897,7.74436557 67.5594218,7.05239658 67.5594218,6.18585579 L67.5594218,6.0032386 C67.5594218,5.42673832 67.6695281,4.91201365 67.8897441,4.45904915 C68.10996,4.00608464 68.4178997,3.651596 68.8135722,3.39557258 C69.2092448,3.13954917 69.6380328,3.01153938 70.0999492,3.01153938 C70.8554868,3.01153938 71.4427205,3.26039757 71.8616679,3.75812141 C72.2806153,4.25584526 72.4900859,4.96840323 72.4900859,5.89581673 L72.4900859,6.30939094 L68.5530742,6.30939094 C68.5673971,6.88231048 68.7347946,7.34511509 69.0552714,7.69781868 C69.3757483,8.05052226 69.7830522,8.22687141 70.2771953,8.22687141 C70.6281085,8.22687141 70.925306,8.15525755 71.1687968,8.01202766 C71.4122876,7.86879778 71.6253389,7.67902103 71.807957,7.44269173 L72.4148906,7.91534798 C71.927909,8.66372411 71.1974475,9.03790657 70.2234843,9.03790657 Z M70.0999492,3.82794563 C69.6989055,3.82794563 69.3623203,3.97385889 69.0901835,4.26568977 C68.8180468,4.55752066 68.6497542,4.96661487 68.5853007,5.49298469 L71.4964335,5.49298469 L71.4964335,5.41778938 C71.4677876,4.91290404 71.3317212,4.52171329 71.0882304,4.2442054 C70.8447396,3.9666975 70.5153158,3.82794563 70.0999492,3.82794563 Z M76.448582,4.01056282 C76.2981906,3.98549759 76.135269,3.97296516 75.9598124,3.97296516 C75.3081165,3.97296516 74.8659008,4.2504689 74.6331523,4.80548469 L74.6331523,8.93048469 L73.6394999,8.93048469 L73.6394999,3.11896126 L74.6062968,3.11896126 L74.6224101,3.79034798 C74.9482581,3.27113965 75.4101675,3.01153938 76.0081523,3.01153938 C76.2015126,3.01153938 76.3483211,3.03660423 76.448582,3.08673469 L76.448582,4.01056282 Z M79.6712382,9.03790657 C78.8834739,9.03790657 78.2425298,8.77920147 77.7483867,8.26178352 C77.2542436,7.74436557 77.0071757,7.05239658 77.0071757,6.18585579 L77.0071757,6.0032386 C77.0071757,5.42673832 77.117282,4.91201365 77.337498,4.45904915 C77.5577139,4.00608464 77.8656536,3.651596 78.2613261,3.39557258 C78.6569987,3.13954917 79.0857867,3.01153938 79.5477031,3.01153938 C80.3032407,3.01153938 80.8904744,3.26039757 81.3094218,3.75812141 C81.7283692,4.25584526 81.9378398,4.96840323 81.9378398,5.89581673 L81.9378398,6.30939094 L78.0008281,6.30939094 C78.0151511,6.88231048 78.1825485,7.34511509 78.5030253,7.69781868 C78.8235022,8.05052226 79.2308061,8.22687141 79.7249492,8.22687141 C80.0758624,8.22687141 80.3730599,8.15525755 80.6165507,8.01202766 C80.8600415,7.86879778 81.0730928,7.67902103 81.2557109,7.44269173 L81.8626445,7.91534798 C81.3756629,8.66372411 80.6452014,9.03790657 79.6712382,9.03790657 Z M79.5477031,3.82794563 C79.1466594,3.82794563 78.8100742,3.97385889 78.5379374,4.26568977 C78.2658007,4.55752066 78.0975081,4.96661487 78.0330546,5.49298469 L80.9441874,5.49298469 L80.9441874,5.41778938 C80.9155415,4.91290404 80.7794751,4.52171329 80.5359843,4.2442054 C80.2924935,3.9666975 79.9630697,3.82794563 79.5477031,3.82794563 Z M82.8455546,5.97638313 C82.8455546,5.08477711 83.0568155,4.36774327 83.4793437,3.82526008 C83.9018718,3.2827769 84.455089,3.01153938 85.1390117,3.01153938 C85.8193536,3.01153938 86.358248,3.24428445 86.7557109,3.70978157 L86.7557109,0.680484694 L87.7493632,0.680484694 L87.7493632,8.93048469 L86.8362773,8.93048469 L86.7879374,8.30743782 C86.3904745,8.79441942 85.8372574,9.03790657 85.1282695,9.03790657 C84.455089,9.03790657 83.9063478,8.76219318 83.4820292,8.21075813 C83.0577107,7.65932308 82.8455546,6.93960372 82.8455546,6.05157844 L82.8455546,5.97638313 Z M83.839207,6.0891761 C83.839207,6.74803356 83.9752733,7.2636534 84.2474101,7.6360511 C84.5195469,8.0084488 84.8955197,8.19464485 85.3753398,8.19464485 C86.0055513,8.19464485 86.4656704,7.91177007 86.7557109,7.34601204 L86.7557109,4.67657844 C86.4585089,4.12872414 86.0019705,3.8548011 85.386082,3.8548011 C84.8991004,3.8548011 84.5195469,4.0427875 84.2474101,4.41876594 C83.9752733,4.79474439 83.839207,5.3515422 83.839207,6.0891761 Z M96.9339335,6.0891761 C96.9339335,6.97720137 96.729834,7.69065453 96.3216288,8.22955696 C95.9134237,8.76845939 95.3655776,9.03790657 94.6780742,9.03790657 C93.944021,9.03790657 93.3764811,8.7783063 92.9754374,8.25909798 L92.9270976,8.93048469 L92.0140117,8.93048469 L92.0140117,0.680484694 L93.007664,0.680484694 L93.007664,3.75812141 C93.4087077,3.26039757 93.9619248,3.01153938 94.667332,3.01153938 C95.3727391,3.01153938 95.9268514,3.27830104 96.3296855,3.81183235 C96.7325195,4.34536366 96.9339335,5.07582511 96.9339335,6.0032386 L96.9339335,6.0891761 Z M95.9402812,5.97638313 C95.9402812,5.29962194 95.8095859,4.7768407 95.5481913,4.40802376 C95.2867968,4.03920681 94.910824,3.8548011 94.4202617,3.8548011 C93.7649849,3.8548011 93.2941238,4.15916004 93.007664,4.76788704 L93.007664,7.28155891 C93.3120275,7.89028591 93.7864694,8.19464485 94.4310038,8.19464485 C94.9072432,8.19464485 95.277845,8.01023914 95.5428203,7.64142219 C95.8077955,7.27260525 95.9402812,6.71759777 95.9402812,5.97638313 Z M100.027684,7.47491829 L101.381199,3.11896126 L102.444676,3.11896126 L100.10825,9.82745735 C99.7465945,10.7942591 99.1718932,11.2776527 98.3841288,11.2776527 L98.1961406,11.2615394 L97.8255351,11.1917152 L97.8255351,10.3860511 L98.0940898,10.4075355 C98.43068,10.4075355 98.6929658,10.3395023 98.880955,10.2034339 C99.0689442,10.0673655 99.2238092,9.81850734 99.3455546,9.45685188 L99.5657695,8.86603157 L97.4925273,3.11896126 L98.5774882,3.11896126 L100.027684,7.47491829 Z" id="path-16"></path>
    </defs>
    <g id="Page-1" stroke="none" stroke-width="1" fill="none" fill-rule="evenodd">
        <g id="_1200_00_B_Home_PlayerAtive" transform="translate(-464.000000, -3594.000000)">
            <g id="Group-6" transform="translate(464.000000, 3594.000000)">
                <g id="MyTunerLogo">
                    <g id="Group-3" transform="translate(47.123335, 16.517857)">
                        <mask id="mask-2" fill="white">
                            <use xlink:href="#path-1"></use>
                        </mask>
                        <g id="Clip-2"></g>
                        <g id="Fill-1" mask="url(#mask-2)">
                            <use fill="#474747" fill-rule="evenodd" xlink:href="#path-3"></use>
                            <use fill="black" fill-opacity="1" filter="url(#filter-4)" xlink:href="#path-3"></use>
                        </g>
                    </g>
                    <g id="Fill-4">
                        <use fill="#474747" fill-rule="evenodd" xlink:href="#path-5"></use>
                        <use fill="black" fill-opacity="1" filter="url(#filter-6)" xlink:href="#path-5"></use>
                    </g>
                    <g id="Fill-6">
                        <use fill="#474747" fill-rule="evenodd" xlink:href="#path-7"></use>
                        <use fill="black" fill-opacity="1" filter="url(#filter-8)" xlink:href="#path-7"></use>
                    </g>
                    <path d="M38.7936347,28.4014456 C39.8596918,28.673767 45.9669338,30.4529337 45.87659,30.4710884 C45.8223837,30.4892432 44.1239199,30.9975765 42.0821497,31.6148384 L38.3780532,32.7404337 L38.3238469,34.2291241 C38.2877094,35.0642432 38.3419157,35.7359694 38.4141907,35.7359694 C38.5045345,35.7359694 40.9980239,34.8826956 43.9793698,33.8297194 C48.8579359,32.0868622 49.4361363,31.9234694 49.8878554,32.1231718 C50.5202621,32.3773384 50.755156,32.794898 50.755156,33.6481718 L50.755156,34.3017432 L51.8934881,34.2472789 L53.0137514,34.1928146 L52.9776139,32.8312075 C52.9234076,31.2335884 52.6704449,30.7797194 51.369494,30.0716837 C50.682881,29.7085884 38.7213597,25.3877551 38.3780532,25.3877551 C38.3238469,25.3877551 38.2877094,26.0413265 38.2877094,26.8401361 C38.2877094,28.2743622 38.2877094,28.292517 38.7936347,28.4014456 Z" id="Fill-8" fill="#BF272D"></path>
                    <g id="Fill-10">
                        <use fill="#474747" fill-rule="evenodd" xlink:href="#path-9"></use>
                        <use fill="black" fill-opacity="1" filter="url(#filter-10)" xlink:href="#path-9"></use>
                    </g>
                    <g id="Fill-12">
                        <use fill="#474747" fill-rule="evenodd" xlink:href="#path-11"></use>
                        <use fill="black" fill-opacity="1" filter="url(#filter-12)" xlink:href="#path-11"></use>
                    </g>
                    <path d="M40.5931438,38.8707124 C38.2465912,39.4228547 37.493593,42.7000861 39.2797748,44.5168121 C39.8401456,45.0867654 39.8576572,45.1580096 39.5774718,45.318309 C39.017101,45.6567187 38.6318461,46.1376168 38.4567302,46.8322474 C38.0714753,48.2393195 38.3516607,49.4682813 39.22724,50.2519671 L39.822634,50.7862983 L39.1747053,50.8397314 L38.5267766,50.8931645 L38.5267766,52.1399373 L38.5267766,53.3867101 L43.5701135,53.4401432 L48.5959388,53.4757653 L48.5959388,52.1577483 L48.5959388,50.8219203 L45.0060636,50.7684872 C41.643839,50.7150541 41.3986768,50.6972431 41.0659566,50.3410223 C40.8558176,50.1272898 40.6456786,49.6463917 40.5931438,49.2545488 C40.5230975,48.6845955 40.5756322,48.453052 40.9433755,48.025587 L41.3811652,47.5090669 L44.988552,47.4378227 L48.5959388,47.3843896 L48.5959388,46.0663726 L48.5959388,44.7483557 L45.2687374,44.7483557 C41.7313969,44.7483557 41.1184914,44.6236784 40.7157249,43.8756147 C40.4005163,43.2700393 40.5055859,42.4507315 40.9783987,41.9876445 C41.3986768,41.5423685 41.4161884,41.5423685 45.0060636,41.5423685 L48.5959388,41.5423685 L48.5959388,40.1174852 L48.5959388,38.692602 L44.8834825,38.7104131 C42.8346269,38.7282241 40.8908408,38.7816572 40.5931438,38.8707124" id="Fill-14" fill="#BF272D"></path>
                    <g id="Group-18" transform="translate(0.000000, 25.387755)">
                        <mask id="mask-14" fill="white">
                            <use xlink:href="#path-13"></use>
                        </mask>
                        <g id="Clip-17"></g>
                        <path d="M15.4876286,18.9217764 C15.4876286,19.2391151 15.4851176,19.5564538 15.488346,19.8736065 C15.490857,20.1070532 15.6214279,20.2515856 15.8240998,20.2558639 C16.0332285,20.2601422 16.1790446,20.1100294 16.1803001,19.8723044 C16.1837078,19.2441375 16.1833491,18.6157845 16.1806588,17.9878036 C16.1795827,17.7478464 16.0366362,17.5915952 15.8321708,17.5921517 C15.6282434,17.5925253 15.4901396,17.7489625 15.4881667,17.9891056 C15.4856557,18.2999339 15.4876286,18.6107621 15.4876286,18.9217764 M15.4876286,15.7465291 C15.4876286,16.0703783 15.4851176,16.3942275 15.488346,16.7178907 C15.4906776,16.9498493 15.6230421,17.0966138 15.8239204,17.1010781 C16.032511,17.1055424 16.1790446,16.9548716 16.1803001,16.7171466 C16.1837078,16.0889797 16.1833491,15.4608127 16.1806588,14.8326457 C16.1794033,14.5925026 16.037533,14.4371813 15.8325295,14.4371813 C15.6280641,14.4369954 15.4901396,14.5925026 15.4881667,14.8332038 C15.4856557,15.1377076 15.4876286,15.4422114 15.4876286,15.7465291 M2.99353532,15.7651305 C2.99353532,16.0822832 2.99138305,16.3994359 2.99425274,16.7165886 C2.99640501,16.9498493 3.12446494,17.0941956 3.3267781,17.1010781 C3.54684747,17.1085186 3.69607136,16.9768212 3.69894105,16.736678 C3.7068327,16.0960482 3.70647399,15.4548603 3.69965848,14.8142304 C3.6971475,14.5725991 3.54899974,14.4317871 3.33700137,14.4362514 C3.12984561,14.4403437 2.9960463,14.5923165 2.99407339,14.8332038 C2.99156241,15.14366 2.99335596,15.4543022 2.99353532,15.7651305 M2.99353532,18.9214044 C2.99353532,19.2385571 2.99138305,19.5558958 2.99425274,19.8730485 C2.99640501,20.1074252 3.1233888,20.2493534 3.32767488,20.2558639 C3.54953781,20.2627464 3.69678879,20.132537 3.69965848,19.8912778 C3.70719141,19.2504619 3.7068327,18.609274 3.69983783,17.9684582 C3.69732685,17.7273849 3.54756489,17.5860148 3.33592524,17.5908511 C3.12912818,17.5955015 2.99586694,17.7476604 2.99407339,17.9889196 C2.99174176,18.2997479 2.99335596,18.6105761 2.99353532,18.9214044 M14.9425668,19.8635618 C14.9425668,19.2344648 14.9447191,18.6053677 14.9414907,17.9762707 C14.9402352,17.7480324 14.7983649,17.5960595 14.5999975,17.5925253 C14.4014508,17.588991 14.2509715,17.7411499 14.2506127,17.9645519 C14.2482811,19.2229319 14.2468463,20.481312 14.2547379,21.73932 C14.2554553,21.836791 14.3074685,21.9785332 14.3786727,22.0198281 C14.4789325,22.0780503 14.6274389,22.0962796 14.7409711,22.0685636 C14.8864285,22.0330351 14.9425668,21.8881307 14.9425668,21.7313215 C14.9425668,21.1089209 14.9425668,20.4861484 14.9425668,19.8635618 M14.2491779,14.8304136 C14.2491779,15.4461176 14.2484605,16.0621937 14.2495366,16.6778978 C14.2500747,16.9435248 14.373292,17.0964278 14.5856491,17.1010781 C14.807512,17.1059144 14.9420287,16.9491052 14.9422081,16.6775258 C14.9432842,15.4522561 14.9432842,14.2268004 14.9422081,13.0015307 C14.9420287,12.7450183 14.8060772,12.587279 14.5940788,12.5874649 C14.3792107,12.5876511 14.250254,12.740182 14.249716,13.0020887 C14.2482811,13.6114683 14.2491779,14.221034 14.2491779,14.8304136 M4.23216537,19.8464486 C4.23216537,20.4627107 4.23144795,21.0789728 4.23252408,21.6952349 C4.2328828,21.9552815 4.36058401,22.1113467 4.57276173,22.1176711 C4.79390724,22.1238096 4.93918531,21.9666283 4.93972338,21.6989552 C4.94259307,20.4664309 4.94277242,19.2339067 4.93954402,18.0013825 C4.93900595,17.7400338 4.8021576,17.5915952 4.5858547,17.5908485 C4.36309499,17.5901071 4.2328828,17.7450562 4.23252408,18.0170076 C4.23144795,18.6267593 4.23216537,19.2365109 4.23216537,19.8464486 M4.23216537,14.8519911 C4.23216537,15.4617428 4.23162731,16.0714944 4.23252408,16.68106 C4.2328828,16.9498493 4.35089881,17.0954977 4.56881591,17.1010781 C4.80179889,17.1070305 4.93900595,16.9654744 4.93972338,16.6927789 C4.94295178,15.4604407 4.94259307,14.2281025 4.93972338,12.9957643 C4.93918531,12.7360897 4.78224912,12.5662595 4.57060947,12.5751882 C4.36381241,12.5837448 4.2328828,12.7476225 4.23252408,13.0035768 C4.23144795,13.6196529 4.23216537,14.235915 4.23216537,14.8519911 M12.9746767,14.3259455 C12.9746767,15.1101776 12.9741387,15.8942237 12.9750354,16.6782698 C12.9753941,16.9422227 13.1000463,17.0964278 13.3118653,17.1010781 C13.534087,17.1059144 13.6675276,16.9498493 13.6677069,16.6777118 C13.6684243,15.115758 13.6684243,13.5541762 13.6677069,11.9924085 C13.6677069,11.7184109 13.5367773,11.5567653 13.3204744,11.5569511 C13.1045302,11.5573233 12.9752148,11.7185969 12.9750354,11.9931525 C12.9741387,12.7708742 12.9746767,13.5484098 12.9746767,14.3259455 M6.20202837,20.3594733 C6.20202837,19.5817516 6.20400129,18.804216 6.19933804,18.0266803 C6.19879997,17.9336737 6.18391345,17.8272741 6.13871583,17.7506366 C6.05639159,17.6113126 5.91864646,17.561089 5.76332448,17.6087084 C5.5828927,17.6645124 5.5081014,17.8021623 5.50828076,17.9918958 C5.50881882,18.6464767 5.50828076,19.3006855 5.50828076,19.9552664 C5.50828076,20.8752882 5.5097156,21.79531 5.50720124,22.7157039 C5.50666656,22.9113899 5.57015845,23.0613167 5.75722639,23.1234451 C5.99110614,23.2008266 6.19987611,23.0257881 6.20095224,22.7503024 C6.20364257,21.9534214 6.20202837,21.1563543 6.20202837,20.3594733 M6.20202837,14.3291077 C6.20202837,13.5385511 6.20041417,12.7481806 6.20310977,11.957624 C6.20382193,11.7652862 6.1311829,11.6306126 5.95236532,11.5723904 C5.70951778,11.4937068 5.50899818,11.6821383 5.50881882,11.9892462 C5.50774269,13.5445036 5.5081014,15.0995748 5.50863947,16.6546461 C5.50863947,16.945943 5.63580262,17.1042403 5.86286686,17.1011246 C6.08132203,17.0981019 6.20166966,16.9438968 6.20184902,16.6619007 C6.20238709,15.884179 6.20202837,15.1066434 6.20202837,14.3291077 M13.6678863,20.3808648 C13.6678863,19.5837978 13.6693211,18.7867307 13.6671688,17.9896637 C13.6664514,17.7485904 13.5256572,17.5927111 13.3206537,17.5927111 C13.1163677,17.5925253 12.9757529,17.7487764 12.9755735,17.9896637 C12.9741387,19.5772873 12.9736006,21.1650969 12.9780845,22.7527206 C12.9782638,22.8371706 13.0085749,22.9337115 13.055028,23.0029085 C13.1479343,23.1409304 13.2917775,23.1712505 13.4397459,23.1160046 C13.5975789,23.0568523 13.668783,22.9279451 13.6684257,22.7527206 C13.6671688,21.961978 13.6678863,21.1714214 13.6678863,20.3808648 M11.7364054,14.0352067 C11.7364054,14.9170958 11.7358673,15.7987989 11.7367641,16.680502 C11.7369434,16.9438968 11.8633892,17.0975438 12.0762843,17.1011311 C12.2981472,17.1044263 12.4292562,16.9489192 12.4292562,16.6745496 C12.4299736,14.9176538 12.4299736,13.1603861 12.4292562,11.4034903 C12.4292562,11.1285626 12.2986853,10.9697073 12.0798714,10.9715513 C11.8621337,10.9734275 11.7367641,11.1311668 11.7365847,11.4094428 C11.7360467,12.2846354 11.7364054,13.159828 11.7364054,14.0352067 M7.44029972,20.6582107 C7.44029972,19.7765076 7.4383268,18.8946185 7.44191392,18.0131014 C7.4428107,17.8151832 7.37967751,17.6699068 7.19063666,17.6085224 C6.94725106,17.5298388 6.74744888,17.7175262 6.74744888,18.0253782 C6.7465521,19.7759495 6.74673145,21.5263348 6.74709017,23.2769061 C6.74726952,23.569319 6.87245976,23.7253842 7.10095884,23.7224498 C7.32192499,23.7192457 7.43994101,23.5682029 7.44012036,23.2839746 C7.44083778,22.408782 7.44047907,21.5334033 7.44029972,20.6582107 M7.44029972,14.0551101 C7.44029972,13.1668965 7.43814745,12.278683 7.44209921,11.3906554 C7.4428107,11.1919932 7.37860138,11.0465308 7.19063666,10.9855184 C6.94814784,10.9064628 6.74762823,11.0965684 6.74744888,11.4031183 C6.7465521,13.1535036 6.74691081,14.9040749 6.74726952,16.6546461 C6.74726952,16.946687 6.87353589,17.1042403 7.1011382,17.1011248 C7.31941401,17.0979159 7.43994101,16.9433388 7.44012036,16.6615286 C7.44083778,15.7928465 7.44047907,14.9239783 7.44029972,14.0551101 M11.736226,20.6730917 L11.736226,21.3343691 C11.7364054,22.0023429 11.7346118,22.6699446 11.7374815,23.3377324 C11.7385576,23.5983371 11.9154023,23.7575645 12.1471298,23.7185017 C12.3277409,23.6879955 12.4292562,23.541045 12.4292562,23.3012738 C12.4299736,21.5443781 12.4297974,19.7871103 12.4294356,18.0302146 C12.4294356,17.9848273 12.4317672,17.938696 12.424593,17.8944249 C12.3937438,17.6989249 12.2125946,17.5642512 12.0278583,17.5968036 C11.8415078,17.6295419 11.7371228,17.7733302 11.7367641,18.008451 C11.735688,18.8964786 11.7364054,19.7848782 11.736226,20.6730917 M10.4685404,13.8778394 L10.4685404,14.6944379 C10.4685404,15.3622256 10.4665674,16.0298274 10.4694371,16.6974292 C10.4706926,16.9757051 10.6306779,17.1265619 10.8819551,17.09959 C11.0767353,17.0785705 11.1845281,16.9249235 11.1845281,16.6615286 C11.1850661,14.8142304 11.1848868,12.9667462 11.1847074,11.119448 C11.1847074,11.0740607 11.1875771,11.0277434 11.1805822,10.9834723 C11.1465047,10.7725332 10.9463438,10.6289309 10.7540745,10.6746902 C10.5720286,10.7178453 10.4694371,10.8657258 10.4690784,11.0971264 C10.4680023,12.0240307 10.4687197,12.9507491 10.4685404,13.8778394 M8.70816474,13.9079736 C8.70816474,13.4347557 8.70816474,12.9615378 8.70798538,12.48832 C8.70798538,12.0151021 8.71013765,11.5418842 8.70708861,11.0688524 C8.70547441,10.8339176 8.56127247,10.672272 8.35967673,10.6666916 C8.15341774,10.6609252 8.00078609,10.8283372 7.99235638,11.0699685 C7.9914596,11.1023348 7.99199767,11.1348871 7.99199767,11.1672534 C7.99199767,12.9819993 7.99199767,14.7969312 7.99217702,16.6120491 C7.99217702,16.6702713 7.98858991,16.7294235 7.99684027,16.7865296 C8.02571653,16.9857498 8.16561393,17.1042403 8.36111158,17.1011398 C8.57992546,17.0973578 8.70708861,16.9498493 8.70744732,16.6886866 C8.70888216,15.7617822 8.70798538,14.8348779 8.70816474,13.9079736 M8.70798538,20.8086954 C8.70798538,19.8750946 8.70906152,18.9413078 8.70744732,18.007707 C8.70690925,17.7165961 8.51858583,17.5426737 8.26856406,17.5953155 C8.09369232,17.6323321 7.99271509,17.785049 7.99235638,18.0237041 C7.9914596,18.9640014 7.99199767,19.9039267 7.99199767,20.844038 C7.99199767,21.7582934 7.98607893,22.6725488 7.99899254,23.5864322 C8.00060674,23.7121772 8.06535412,23.8773571 8.15628743,23.9489722 C8.23807361,24.0137048 8.40577113,24.0099845 8.51733034,23.974642 C8.66888585,23.9264646 8.70906152,23.7709574 8.70888276,23.6094979 C8.70726796,22.6760831 8.70798538,21.7422963 8.70798538,20.8086954 M11.1848868,20.8081374 C11.1848868,19.8743506 11.1859629,18.9407498 11.1843487,18.0069629 C11.1838106,17.7485904 11.0525223,17.5953155 10.8374749,17.5908511 C10.6118455,17.5860148 10.4697958,17.7409639 10.4692578,18.0051028 C10.4672849,18.86095 10.468361,19.7167973 10.468361,20.5726445 C10.468361,21.5776745 10.4680023,22.5827044 10.4688991,23.5877343 C10.4690784,23.8267614 10.5662892,23.9770602 10.7422371,24.0192852 C10.9856227,24.0778794 11.1836313,23.8980045 11.1841694,23.6089398 C11.1861423,22.675339 11.1848868,21.7417382 11.1848868,20.8081374 M9.94643608,13.8568199 C9.94643608,12.9035017 9.94751222,11.9503695 9.94571866,10.9970512 C9.94518059,10.7184033 9.78250503,10.5563857 9.54091298,10.5837297 C9.33985531,10.6062373 9.23080708,10.7641626 9.23062772,11.0389042 C9.23026901,12.6473613 9.23044837,14.2554464 9.23044837,15.8637175 C9.23044837,16.149062 9.22596447,16.4344064 9.23206257,16.7195648 C9.23744324,16.9816575 9.40191236,17.12712 9.64691216,17.099404 C9.83523559,17.0781985 9.94589802,16.9256675 9.94607737,16.6778978 C9.94697415,15.7376005 9.94643608,14.7971172 9.94643608,13.8568199 M9.23044837,20.8485023 C9.23044837,21.79531 9.22937223,22.7421178 9.23116579,23.6889256 C9.23170385,23.9831986 9.38828133,24.1370316 9.64691216,24.1076415 C9.84007819,24.085878 9.94625673,23.9314869 9.94625673,23.666604 C9.94661544,21.7925198 9.94643608,19.9182497 9.94625673,18.0441656 C9.94625673,17.9987783 9.9613226,17.9414862 9.9406967,17.910422 C9.87020994,17.8034644 9.80384835,17.6555838 9.70340919,17.6191252 C9.60297003,17.5826666 9.43347895,17.6245196 9.35025793,17.6994829 C9.27223823,17.7697959 9.23654646,17.9273492 9.23547032,18.0471418 C9.22650254,18.9809286 9.23044837,19.9147155 9.23044837,20.8485023 M23.6917143,19.7253519 C22.7101009,19.7238658 21.9186044,20.5315356 21.9153674,21.5380536 C21.912327,22.5538723 22.7138674,23.3898162 23.6870511,23.3857388 C24.6587999,23.3820036 25.4524486,22.5581506 25.4531665,21.5527487 C25.4538835,20.5408363 24.6693819,19.726842 23.6917143,19.7253519 M23.7795986,11.3194081 C22.3373999,11.3168081 21.1703327,12.5151059 21.1694354,13.9989341 C21.1685392,15.4708574 22.3330953,16.6816181 23.7575378,16.6902177 C25.1760616,16.6985453 26.3529933,15.4844364 26.3544295,14.011955 C26.355863,12.5240345 25.2061933,11.3218305 23.7795986,11.3194081 M4.45205539,7.09039965 C4.51249824,6.7446009 4.56253846,6.6999577 4.87174759,6.64843202 C4.91676585,6.64099148 4.95694152,6.57012041 4.98850811,6.52119891 C5.00303592,6.4986913 4.9913778,6.45795438 4.9913778,6.42558807 C4.9913778,4.70608101 4.992992,2.98675996 4.98743198,1.26743891 C4.98707326,1.16754976 4.94635953,1.05575576 4.8927322,0.970933688 C4.74494315,0.735998874 4.76700389,0.432797174 4.96411574,0.243621636 C5.15315659,0.0620726424 5.44747919,0.0525859635 5.6512272,0.221114025 C5.85641005,0.390944179 5.89622701,0.697494118 5.76386254,0.943589731 C5.7098765,1.04385091 5.66629307,1.16643368 5.66593436,1.27897173 C5.65983627,2.99196833 5.66342338,4.70477891 5.65893949,6.41777551 C5.65858078,6.58053716 5.68028281,6.66814943 5.86806817,6.66368511 C6.02984696,6.65977883 6.13207967,6.77789728 6.14983588,6.94605332 C6.16239078,7.0645438 6.21440391,7.1023045 6.32094116,7.09002762 C6.37044332,7.08407519 6.42102161,7.08891154 6.47106183,7.08891154 C12.4080922,7.08928357 18.3451227,7.08798147 24.2819737,7.09095769 C25.8714234,7.09170174 27.2336295,8.15365174 27.6667734,9.73513692 C27.7494563,10.0368505 27.8012901,10.3588396 27.8020075,10.6715279 C27.8104372,15.1226405 27.8124102,19.573567 27.8054153,24.0244936 C27.8027249,25.7836215 26.5016791,27.3200914 24.8236278,27.5561423 C24.4541551,27.607854 24.0755354,27.592787 23.7010408,27.6000415 C23.595221,27.6022736 23.5351368,27.6236652 23.496396,27.7408536 C23.4217841,27.9666737 23.2365097,28.0983711 23.0264842,28.0872103 C22.8096433,28.0760495 22.6365651,27.9750443 22.5673338,27.7522004 C22.5287723,27.6283155 22.4672533,27.5849744 22.3510309,27.6020876 C22.3264592,27.6058079 22.3009907,27.6026457 22.2760602,27.6026457 C16.7018663,27.6026457 11.1276723,27.6030177 5.55365773,27.6002275 C5.39905317,27.6002275 5.29287463,27.6113883 5.23583954,27.8007498 C5.17378249,28.0074106 4.98545906,28.0885124 4.78601559,28.0851642 C4.57688691,28.0812579 4.39932483,27.9787646 4.33816456,27.7644772 C4.29476049,27.6126904 4.21638208,27.6005995 4.09352346,27.6005995 C3.60065416,27.6007855 3.10832293,27.6229211 2.62191043,27.4882475 C1.24033393,27.1054321 0.21764807,25.9082504 0.0356020945,24.435211 C0.013361995,24.2558941 0.00188323402,24.0737871 0.00188323402,23.8929822 C-3.55570108e-06,19.5328301 -0.000627744946,15.1728641 0.000807100179,10.812526 C0.00152452274,8.97378444 1.13523153,7.52901904 2.87121477,7.15606235 C3.06545693,7.11420935 3.26723203,7.09932829 3.46613743,7.09318985 C3.79059179,7.08295911 4.11540485,7.09039965 4.45205539,7.09039965" id="Fill-16" fill="#BF272D" mask="url(#mask-14)"></path>
                    </g>
                    <path d="M25.0342715,37.9502841 C25.0318458,38.3526949 24.6940325,38.692602 24.2958953,38.692602 C23.8970688,38.692602 23.5623578,38.355504 23.5616673,37.952391 C23.560979,37.5404994 23.8836252,37.2153402 24.2941718,37.2142857 C24.6967901,37.2135845 25.0366717,37.5513848 25.0342715,37.9502841" id="Fill-19" fill="#BF272D"></path>
                    <path d="M25.0330062,46.867006 C25.0113237,47.25517 24.6724468,47.5729792 24.2919535,47.5622354 C23.8729912,47.5504518 23.5365623,47.1865481 23.5631409,46.7748171 C23.5893697,46.376949 23.9523772,46.0584466 24.3482581,46.0858261 C24.7609255,46.1142452 25.0560876,46.4518092 25.0330062,46.867006" id="Fill-21" fill="#BF272D"></path>
                    <g id="Poweredby" fill-rule="nonzero">
                        <use fill="#434343" xlink:href="#path-16"></use>
                        <use fill="url(#linearGradient-15)" xlink:href="#path-16"></use>
                    </g>
                </g>
            </g>
        </g>
    </g>
</svg>