<?xml version="1.0" encoding="UTF-8"?>
<svg width="40px" height="40px" viewBox="0 0 40 40" version="1.1" xmlns="http://www.w3.org/2000/svg" xmlns:xlink="http://www.w3.org/1999/xlink">
    <!-- Generator: Sketch 61.2 (89653) - https://sketch.com -->
    <title>Bitmap</title>
    <desc>Created with Sketch.</desc>
    <defs>
        <rect id="path-1" x="0" y="0" width="40" height="40"></rect>
        <linearGradient x1="13.2858783%" y1="11.71875%" x2="80.9171248%" y2="200.950932%" id="linearGradient-3">
            <stop stop-color="#FFE7E4" offset="0%"></stop>
            <stop stop-color="#D41200" offset="100%"></stop>
        </linearGradient>
        <linearGradient x1="13.2858783%" y1="4.86846432%" x2="80.9171248%" y2="227.963033%" id="linearGradient-4">
            <stop stop-color="#FFE7E4" offset="0%"></stop>
            <stop stop-color="#D41200" offset="100%"></stop>
        </linearGradient>
        <linearGradient x1="13.2858783%" y1="37.5%" x2="80.9171248%" y2="99.2901001%" id="linearGradient-5">
            <stop stop-color="#FFE7E4" offset="0%"></stop>
            <stop stop-color="#D41200" offset="100%"></stop>
        </linearGradient>
    </defs>
    <g id="Page-1" stroke="none" stroke-width="1" fill="none" fill-rule="evenodd">
        <g id="_1200_06_Top_Artists" transform="translate(-908.000000, -1465.000000)">
            <g id="Platform-Copy" transform="translate(849.000000, 1382.000000)">
                <g id="02" transform="translate(59.000000, 83.000000)">
                    <g id="Bitmap">
                        <mask id="mask-2" fill="white">
                            <use xlink:href="#path-1"></use>
                        </mask>
                        <use id="Mask" fill="#FFFFFF" xlink:href="#path-1"></use>
                        <g id="Icon_Country" mask="url(#mask-2)">
                            <g transform="translate(19.586824, 19.992404) rotate(-10.000000) translate(-19.586824, -19.992404) translate(3.086824, 3.992404)">
                                <path d="M3.9788325,6.74941432 C7.42548196,3.68617015 14.8457906,1.83602549 23.6038251,7.31552742 C32.3618595,12.7950294 34.403248,23.5216233 31.7723282,25.8476039 C29.1414084,28.1735845 25.9722722,23.853983 23.9934053,25.1990054 C22.0145383,26.5440278 25.0763262,30.7231085 21.4547933,31.7086343 C17.8332603,32.6941601 6.16568596,26.3943661 2.87399058,20.5574762 C-0.417704808,14.7205863 0.532183051,9.81265849 3.9788325,6.74941432 Z M7.96251872,8.1231857 C7.96251872,8.1231857 7.64764983,8.90844834 7.01791205,10.4789736 C9.25879302,15.8049795 12.5314274,18.8889176 16.8358152,19.7307881 C21.1402029,20.5726585 23.7304411,20.5726585 24.6065296,19.7307881 C25.1939052,18.4527619 25.487593,17.8137488 25.487593,17.8137488 C17.8857549,21.0207306 10.1363232,16.4461499 7.96251872,8.1231857 Z" id="Combined-Shape" fill="url(#linearGradient-3)"></path>
                                <path d="M7.15909765,10.7869253 C9.39255843,15.7295442 12.6543562,18.5914883 16.9444909,19.3727576 C17.8180549,19.5318409 18.6207826,19.6585314 19.3526741,19.7528291 C13.4244358,19.3611532 9.40348926,16.4843163 7.28785708,11.1226192 L7.15909765,10.7869253 L7.15909765,10.7869253 Z M12.5125643,0.75145325 C15.3926124,1.63287462 18.0321051,8.67103052 25.2267904,6.54714162 C28.2782153,5.63500721 27.369873,15.5168003 24.8967976,18.9539527 C25.3441199,18.0465057 25.5676203,17.5937144 25.5676203,17.5937144 C16.0672674,20.8310732 9.75417046,14.8944796 7.80823017,8.5897728 C9.16474147,4.37670707 10.7328393,1.76406866 12.5125643,0.75145325 Z" id="Combined-Shape" fill="url(#linearGradient-4)"></path>
                                <path d="M13.1706022,1.18990309 C17.6256249,6.60927445 22.2057753,8.88190446 26.9110534,8.00779312 C28.5209352,7.53033306 22.2716301,3.27946001 18.3617116,1.57431834 C18.1050949,2.7919732 16.3747251,2.66383478 13.1706022,1.18990309 Z" id="Path-16" fill="url(#linearGradient-5)"></path>
                            </g>
                        </g>
                    </g>
                </g>
            </g>
        </g>
    </g>
</svg>