<?xml version="1.0" encoding="UTF-8"?>
<svg width="40px" height="40px" viewBox="0 0 40 40" version="1.1" xmlns="http://www.w3.org/2000/svg" xmlns:xlink="http://www.w3.org/1999/xlink">
    <!-- Generator: Sketch 61.2 (89653) - https://sketch.com -->
    <title>Bitmap</title>
    <desc>Created with Sketch.</desc>
    <defs>
        <rect id="path-1" x="0" y="0" width="40" height="40"></rect>
        <linearGradient x1="100%" y1="121.326652%" x2="46.4943677%" y2="31.5588573%" id="linearGradient-3">
            <stop stop-color="#813D3D" offset="0%"></stop>
            <stop stop-color="#FF8D8D" offset="100%"></stop>
        </linearGradient>
        <linearGradient x1="102.683688%" y1="111.837121%" x2="13.7004629%" y2="-6.74419981%" id="linearGradient-4">
            <stop stop-color="#FFFFFF" stop-opacity="0" offset="0%"></stop>
            <stop stop-color="#FFFFFF" offset="100%"></stop>
        </linearGradient>
        <ellipse id="path-5" cx="17" cy="17.5" rx="17" ry="17.5"></ellipse>
    </defs>
    <g id="Page-1" stroke="none" stroke-width="1" fill="none" fill-rule="evenodd">
        <g id="_1200_06_Top_Artists" transform="translate(-908.000000, -1415.000000)">
            <g id="Platform-Copy" transform="translate(849.000000, 1382.000000)">
                <g id="01" transform="translate(59.000000, 33.000000)">
                    <g id="Bitmap">
                        <mask id="mask-2" fill="white">
                            <use xlink:href="#path-1"></use>
                        </mask>
                        <use id="Mask" fill="#FFFFFF" xlink:href="#path-1"></use>
                        <g id="Flag" mask="url(#mask-2)">
                            <g transform="translate(3.000000, 2.000000)">
                                <path d="M17,1 C18.417679,1 19.7948271,1.17353324 21.1113615,1.50051686 L21.2216046,1.32047725 L21.3571851,1.5635373 C28.53624,3.46163589 33.8541079,9.93835222 33.9970475,17.6799448 L34,17.6792453 L33.9998116,17.9191059 C33.9999372,17.9460558 34,17.9730206 34,18 L33.999,18.081 L34,19.6037736 L33.9254083,19.6030534 C33.1175938,28.2401179 25.8482244,35 17,35 C7.61115925,35 0,27.3888407 0,18 C0,10.1173308 5.36504627,3.48773521 12.6428149,1.5635373 L12.7783954,1.32047725 L12.8886385,1.50051686 C14.2051729,1.17353324 15.582321,1 17,1 Z M16.2489941,26.2692296 C14.8075151,26.4098857 13.3240509,26.7799148 11.7986015,27.3793169 C12.5028426,29.1050686 13.3815737,30.867797 14.4339623,32.6689208 L14.4339623,32.6689208 L14.2104457,32.8541565 C14.8753677,32.978249 15.555612,33.0587977 16.248107,33.0927308 Z M18.137528,26.2161425 L18.1379883,33.0689052 C18.697915,33.0272161 19.2493437,32.9550147 19.7906172,32.8539581 L19.5660377,32.6689208 C20.6912002,30.7432472 21.6178576,28.8614628 22.3460098,27.0235677 C20.9540839,26.5419902 19.5518014,26.2733377 18.137528,26.2161425 Z M24.0316771,27.711373 L23.8657865,28.1683601 C23.3757852,29.4922661 22.8006554,30.8409696 22.1403972,32.2144706 C23.9109837,31.5740104 25.5285561,30.6116087 26.921563,29.3980248 C25.9642139,28.7307898 25.0009006,28.16897 24.0316771,27.711373 Z M10.117916,28.124251 L9.86199652,28.2520519 C9.05214617,28.6627028 8.23098916,29.135124 7.3985255,29.6693156 C8.7164256,30.7549158 10.2220185,31.6219192 11.8591461,32.2141363 C11.1917308,30.8250559 10.6113293,29.4619838 10.117916,28.124251 Z M8.11910861,19.6031196 L1.97295955,19.603505 C2.33278636,23.0150105 3.827781,26.0880842 6.07321428,28.4379968 C7.27128424,27.7220326 8.44374888,27.1097957 9.59116011,26.6014471 C8.80723963,24.1833411 8.31686813,21.8506122 8.11910861,19.6031196 Z M32.0270268,19.6036345 L25.8808914,19.6031196 C25.6928528,21.7401359 25.2402621,23.9542149 24.5231193,26.2453567 C25.7266638,26.753537 26.9486017,27.3908894 28.1870069,28.1568721 C30.2878743,25.846198 31.6813094,22.8810992 32.0270268,19.6036345 Z M16.248,19.603 L9.76710175,19.6033146 C9.97658978,21.6514225 10.4689524,23.7620737 11.2441895,25.9352681 C12.9725285,25.3076646 14.6403787,24.9268014 16.2489792,24.7916271 L16.248,19.603 Z M24.2328983,19.6033146 L18.137,19.603 L18.1373309,24.7466702 C19.6826625,24.8047692 21.2579448,25.0968191 22.8631778,25.6228199 C23.5774109,23.5607037 24.0334106,21.5536519 24.2328983,19.6033146 Z M5.33739971,8.39339759 L5.18157877,8.58257544 C3.18280551,11.0876378 1.96383625,14.2423181 1.89222953,17.6790578 L8.022,17.679 L8.01886792,17.3538937 C8.01886792,15.0826046 8.33363829,12.7626402 8.96317902,10.3940005 C7.78181474,9.83640506 6.57271233,9.16924387 5.33739971,8.39339759 Z M10.5205278,11.0727844 L10.4038816,11.5058402 C9.90179156,13.4379958 9.65074654,15.3873469 9.65074654,17.3538937 C9.65074654,17.4621614 9.65157401,17.570612 9.65322896,17.6792457 L16.248,17.679 L16.2489792,12.4913917 C14.4163939,12.3373956 12.5069101,11.8645264 10.5205278,11.0727844 Z M23.5717046,11.4126531 L23.3991539,11.4762761 C21.6082396,12.1184392 19.8542986,12.4717967 18.1373309,12.5363486 L18.137,17.679 L24.346771,17.6792457 C24.348426,17.570612 24.3492535,17.4621614 24.3492535,17.3538937 C24.3492535,15.3557272 24.0900705,13.3753137 23.5717046,11.4126531 Z M28.8926547,8.67636775 L28.6197494,8.85367934 C27.4426958,9.60781893 26.2804268,10.2464729 25.1329425,10.7696414 C25.6987229,13.0074846 25.9811321,15.2025247 25.9811321,17.3538937 L25.977,17.679 L32.107,17.679 L32.1075589,17.6690606 C32.0347174,14.2789478 30.8454263,11.1637272 28.8926547,8.67636775 Z M18.1379883,2.93109476 L18.137528,11.0668764 C19.8219972,10.998754 21.489456,10.6306589 23.1399045,9.96259086 C22.4088701,7.75103022 21.3457061,5.56300678 19.9507355,3.39771075 L20.070461,3.20104012 C19.4397767,3.07086511 18.7947279,2.97999203 18.1379883,2.93109476 Z M16.248107,2.90726921 C15.4577368,2.94599832 14.6833249,3.04545121 13.9294382,3.20106093 L14.0492645,3.39771075 C12.7372928,5.43417461 11.7188182,7.49074184 10.9938407,9.56741243 C12.8036667,10.3666007 14.5553114,10.8485238 16.2489941,11.0137893 L16.248107,2.90726921 Z M22.613832,3.96603963 L22.6759046,4.09493578 C23.5104335,5.83332151 24.1869312,7.54726969 24.7053978,9.23678032 C25.7072376,8.71187601 26.7036381,8.07479586 27.6936764,7.32552189 C26.2580441,5.88523309 24.5331136,4.73448189 22.613832,3.96603963 Z M11.3862907,3.96593712 L11.1174448,4.07666087 C9.43436091,4.78863554 7.90711144,5.79687881 6.60107599,7.03601109 L6.1519682,6.77358491 C7.26442083,7.55872446 8.35721514,8.23646693 9.43035115,8.80681231 C9.94232353,7.21477331 10.5944893,5.60115167 11.3862907,3.96593712 Z" id="Combined-Shape" fill="url(#linearGradient-3)"></path>
                                <g id="Flag_Out_Gradient" stroke-width="1" fill="none">
                                    <mask id="mask-6" fill="white">
                                        <use xlink:href="#path-5"></use>
                                    </mask>
                                    <use id="Mask" fill="url(#linearGradient-4)" xlink:href="#path-5"></use>
                                </g>
                            </g>
                        </g>
                    </g>
                </g>
            </g>
        </g>
    </g>
</svg>