<?xml version="1.0" encoding="UTF-8"?>
<svg width="40px" height="40px" viewBox="0 0 40 40" version="1.1" xmlns="http://www.w3.org/2000/svg" xmlns:xlink="http://www.w3.org/1999/xlink">
    <!-- Generator: Sketch 61.2 (89653) - https://sketch.com -->
    <title>Bitmap</title>
    <desc>Created with Sketch.</desc>
    <defs>
        <rect id="path-1" x="0" y="0" width="40" height="40"></rect>
        <linearGradient x1="36.1495845%" y1="25.1520921%" x2="140.084077%" y2="68.3540776%" id="linearGradient-3">
            <stop stop-color="#FFE7E4" offset="0%"></stop>
            <stop stop-color="#D41200" offset="100%"></stop>
        </linearGradient>
        <linearGradient x1="21.5080753%" y1="59.766682%" x2="242.876001%" y2="67.1529292%" id="linearGradient-4">
            <stop stop-color="#FFE7E4" offset="0%"></stop>
            <stop stop-color="#D41200" offset="100%"></stop>
        </linearGradient>
        <linearGradient x1="-16.6422822%" y1="55.5555556%" x2="310.981558%" y2="50%" id="linearGradient-5">
            <stop stop-color="#FFE7E4" offset="0%"></stop>
            <stop stop-color="#D41200" offset="100%"></stop>
        </linearGradient>
    </defs>
    <g id="Page-1" stroke="none" stroke-width="1" fill="none" fill-rule="evenodd">
        <g id="_1200_06_Top_Artists" transform="translate(-908.000000, -1565.000000)">
            <g id="Platform-Copy" transform="translate(849.000000, 1382.000000)">
                <g id="04" transform="translate(59.000000, 183.000000)">
                    <g id="Bitmap">
                        <mask id="mask-2" fill="white">
                            <use xlink:href="#path-1"></use>
                        </mask>
                        <use id="Mask" fill="#FFFFFF" xlink:href="#path-1"></use>
                        <g id="Pop_Icon_Micro" mask="url(#mask-2)">
                            <g transform="translate(20.146447, 20.853553) rotate(-315.000000) translate(-20.146447, -20.853553) translate(12.646447, 1.853553)">
                                <path d="M2.5,15.0355339 L4.02841205,34.0355339 L10.971588,34.0355339 L12.5,15.0355339 C10.7451779,16.0622527 9.07851128,16.5756121 7.5,16.5756121 C5.92148872,16.5756121 4.25482205,16.0622527 2.5,15.0355339 Z" id="Path-6" fill="url(#linearGradient-3)"></path>
                                <path d="M1.13755529,9.89746705 C3.13561175,10.7302099 5.3641215,11.1465814 7.82308453,11.1465814 C10.1278869,11.1465814 12.3611226,10.7807809 14.5227914,10.0491798 C13.6219142,12.8733697 10.9765695,14.9185245 7.85355339,14.9185245 C4.71243388,14.9185245 2.05453982,12.8495904 1.16825954,10.0001104 Z M7.85355339,0.918524548 C11.7195466,0.918524548 14.8535534,4.0525313 14.8535534,7.91852455 C14.8535534,8.11987836 14.8450519,8.31924654 14.8283881,8.5162897 C12.4723283,9.41534662 10.1376924,9.86434037 7.82308453,9.86434037 C5.35879367,9.86434037 3.04007884,9.35539711 0.86694003,8.3375106 L0.857612409,8.1591743 L0.857612409,8.1591743 L0.853553391,7.91852455 C0.853553391,4.0525313 3.98756014,0.918524548 7.85355339,0.918524548 Z" id="Combined-Shape" fill="url(#linearGradient-4)"></path>
                                <polygon id="Path-5" fill="url(#linearGradient-5)" points="4.14644661 35.9099026 4.7657239 37.9099026 9.41097136 37.9099026 10.1464466 35.9099026"></polygon>
                            </g>
                        </g>
                    </g>
                </g>
            </g>
        </g>
    </g>
</svg>