<?xml version="1.0" encoding="UTF-8"?>
<svg width="40px" height="40px" viewBox="0 0 40 40" version="1.1" xmlns="http://www.w3.org/2000/svg" xmlns:xlink="http://www.w3.org/1999/xlink">
    <!-- Generator: Sketch 61.2 (89653) - https://sketch.com -->
    <title>Bitmap</title>
    <desc>Created with Sketch.</desc>
    <defs>
        <rect id="path-1" x="0" y="0" width="40" height="40"></rect>
        <linearGradient x1="34.2401676%" y1="15.6077585%" x2="79.5026908%" y2="211.591702%" id="linearGradient-3">
            <stop stop-color="#FFE7E4" offset="0%"></stop>
            <stop stop-color="#D41200" offset="100%"></stop>
        </linearGradient>
    </defs>
    <g id="Page-1" stroke="none" stroke-width="1" fill="none" fill-rule="evenodd">
        <g id="_1200_06_Top_Artists" transform="translate(-908.000000, -1615.000000)">
            <g id="Platform-Copy" transform="translate(849.000000, 1382.000000)">
                <g id="05" transform="translate(59.000000, 233.000000)">
                    <g id="Bitmap">
                        <mask id="mask-2" fill="white">
                            <use xlink:href="#path-1"></use>
                        </mask>
                        <use id="Mask" fill="#FFFFFF" xlink:href="#path-1"></use>
                        <path d="M29.9434818,26.9021927 C28.3173882,28.6432179 25.4030275,31.3516848 25.2792777,31.4681227 C24.8966052,31.8225707 24.4039329,32 23.912953,32 C23.3893961,32 22.87007,31.8001867 22.481263,31.4056939 C21.7248026,30.6364228 21.7535718,29.4207034 22.5436667,28.6859324 C22.5724359,28.6580037 25.4793928,25.9571351 27.0092365,24.3159139 C27.7326968,23.540482 28.0967539,22.5449064 28.0322348,21.5172949 C27.9636965,20.4286921 27.4232166,19.4068306 26.5083142,18.6402291 C25.3074123,17.632332 22.9356468,17.4082864 21.4523415,18.7008098 C20.5689583,19.4686434 19.4983639,20.5997553 19.4884216,20.61105 C18.7457113,21.3922319 17.4950979,21.443366 16.6897722,20.7258451 C15.8857158,20.0070921 15.8309275,18.7895244 16.571734,18.0075211 C16.6210224,17.9549495 17.7819436,16.7287568 18.8095958,15.8348333 C21.6268605,13.3803944 26.2415646,13.3315192 29.0971177,15.7282525 C30.8260188,17.1782855 31.850921,19.1525974 31.9850362,21.2844189 C32.1155552,23.3544277 31.3887102,25.3505076 29.9434818,26.9021927 M17.9716933,27.0391665 C16.1385039,27.0391665 14.3080645,26.4504051 12.9028168,25.2706233 C11.1745503,23.8210011 10.1496481,21.848332 10.0144753,19.7148676 C9.8864947,17.6456803 10.6103781,15.6498058 12.0579335,14.0991474 C13.6825463,12.3564793 16.5973301,9.64760178 16.7202337,9.533012 C17.5105402,8.79803568 18.7626343,8.82740187 19.5190946,9.59482477 C20.2740742,10.3632744 20.2472088,11.5806367 19.4564793,12.3143809 C19.4266525,12.3421043 16.521811,15.0425621 14.9909096,16.6825512 C14.2676607,17.4610634 13.9027575,18.4543801 13.9672766,19.4809648 C14.0364496,20.5705945 14.5769295,21.5926613 15.4907742,22.3598788 C16.6931569,23.3700349 19.0642877,23.5905894 20.5480161,22.3007357 C21.4305531,21.5304378 22.5022052,20.4001473 22.5129937,20.389058 C23.2527425,19.6062332 24.5063174,19.5561259 25.3101623,20.2759057 C26.1148533,20.9938373 26.168584,22.2122264 25.4282005,22.9942297 C25.3791237,23.0439264 24.2167217,24.269503 23.1903387,25.1644532 C21.759918,26.4120031 19.8645364,27.0391665 17.9716933,27.0391665" id="Fill-18" fill="#FFFFFF" mask="url(#mask-2)"></path>
                        <path d="M22.4869501,4.00119107 C23.3258346,4.19320843 23.9029444,4.44902982 24.2188282,4.76951109 C24.9708479,5.53247575 25.5480817,6.87669481 25.6907378,7.71587923 C25.8333938,8.55506365 26.6618823,8.41042537 26.6618823,7.43074683 C26.6618823,6.88569631 26.5022192,6.30518335 26.2236954,5.73814153 C26.6520633,6.27421248 26.9836422,6.94674143 27.1853217,7.78106555 C27.3599862,8.50363188 27.5604499,9.35317903 27.7758842,10.2802094 C27.0550796,10.1522163 26.517268,10.0587905 26.160987,10 C24.2694747,10 24.9989285,11.1783288 26.160987,11.1783288 C26.8555768,11.1783288 27.488099,11.2869822 28.0585535,11.5042889 C28.121217,11.7760317 28.1844086,12.051777 28.2481606,12.330773 C27.3104659,12.1101379 26.5981556,12 26.1096809,12 C24.3890112,12.0100365 24.9434587,13.2653108 25.9315171,13.2653108 C27.0640761,13.2653108 27.9426346,13.4200372 28.5671924,13.72949 C28.6185617,13.9600419 28.6709185,14.1916513 28.7232777,14.4237173 C27.877477,14.1412824 27.2471946,14 26.8322606,14 C25.5417584,14.0100365 25.957594,15.2653108 26.6986378,15.2653108 C27.7672771,15.2653108 28.5343978,15.5102072 29,16 L29,16 L28.7589903,14.5820711 C28.9294098,15.3380581 29.0995717,16.0975831 29.2654044,16.8420339 C28.3384172,16.5922915 27.6458331,16.4762007 27.1861837,16.4924294 C25.6913696,16.5561284 26.2202833,17.9034272 27.0788652,17.8731133 C28.2116572,17.8331179 29.0597196,18.0262491 29.6230526,18.4525069 C29.6835307,18.7284293 29.7432704,18.9996385 29.8016784,19.2654656 C28.8527393,19.0617069 28.1484066,18.9809982 27.6869629,19.021815 C26.1974948,19.1645251 26.7954246,20.4819902 27.6512607,20.4062863 C28.7273884,20.3110963 29.5562229,20.4410395 30.1377641,20.7961159 C30.2008811,21.0939095 30.2624958,21.3787119 30.3209058,21.6499434 C29.3550397,21.4402958 28.6396639,21.35722 28.1728564,21.3985113 C26.6833884,21.5412214 27.2813182,22.8586864 28.1371543,22.7829826 C29.2296537,22.6863444 30.0672783,22.8217417 30.6500279,23.1891744 C30.7630078,23.7368811 30.8472847,24.153675 30.8930026,24.4019721 C31.0923209,25.4844846 31.1685188,26.7901487 29.6703934,28.0314009 C29.7710989,27.8418374 29.8458678,27.6430048 29.8899649,27.4381356 C30.0762561,26.5726533 29.9910359,25.4739138 29.8899649,24.8279197 C29.788894,24.1819257 29.6153108,23.9025674 29.1377404,24.0301609 C28.6601701,24.1577544 28.8627189,24.5961815 28.9312715,25.2816734 C28.9998242,25.9671653 29.3846559,27.5673442 28.7835139,28.4694551 C28.7085374,28.5819696 28.6262054,28.6862372 28.5393313,28.7829159 C27.8023333,29.1858806 26.8536359,29.5752282 25.6400392,29.9398983 C25.7521331,29.8960987 25.87444,29.8233705 26.001885,29.7163263 C26.7636827,29.1766382 28,28.080592 28,26.6962771 C28,25.3119622 27.9824472,24.487187 27.895905,23.7634171 C27.8093628,23.0396471 27.4245861,22.921802 27.1444425,23.0396471 C26.9554718,23.1863082 26.8921098,23.5644332 26.9543564,24.1740219 C27.2064819,26.2276005 27.065059,27.6010398 26.5300876,28.2943396 C25.7276306,29.3342894 25,29.43058 25,29.7163263 C25,29.9039549 25.1954655,30.0438264 25.4849967,29.9873237 C25.246407,30.0559277 24.9963614,30.1253856 24.7358417,30.1938168 C24.7358417,30.1938168 25.2775492,33.187707 25.5345872,35.1130932 C25.5345872,36.8605502 24.1738466,37.7498254 23.1848012,37.9399137 C22.1957558,38.1300019 20.5083388,37.9399137 20.1297214,36.3241634 C19.8214594,35.3492804 19.3080567,33.6068046 18.5895132,31.0967361 C15.5937969,31.2868243 13.7728053,29.9086844 13.1265384,26.9623163 C13.2058862,27.2214591 13.2066749,27.1550177 13.1489772,26.8464743 C13.4921025,26.5549024 13.8541396,26.297069 14.2338892,26.0701429 C15.3423473,25.4077638 16.6496538,25.3213966 16.4595092,24.4778057 C16.2693646,23.6342147 14.4028181,24.634001 13.7197574,25.0363581 C13.4694673,25.1837916 13.1901543,25.3578953 12.8818187,25.5586693 C12.8119587,25.2374367 12.7324433,24.8746492 12.6455168,24.4813087 C13.02666,24.1481367 13.4310923,23.8540458 13.8578989,23.5989972 C14.9663473,22.9366171 16.2736418,22.8502486 16.0834998,22.0066579 C15.8933578,21.1630671 14.0268277,22.1628553 13.343773,22.565213 C13.054301,22.7357283 12.7260079,22.9419184 12.3588936,23.1837832 C12.2789273,22.8351024 12.1973493,22.4713892 12.1137632,22.0994913 C12.4763878,21.7484494 12.862853,21.4354853 13.2733905,21.1598721 C14.3460484,20.439746 15.6470992,20.2843202 15.4135475,19.4519469 C15.1799959,18.6195737 13.36775,19.7167594 12.7064492,20.1547096 C12.4427162,20.3293683 12.1462859,20.5373958 11.8171582,20.7787921 C11.7375552,20.4293422 11.6579981,20.076865 11.5786999,19.7256027 C11.9398111,19.3617797 12.325972,19.0368648 12.7375676,18.7499485 C13.7976206,18.0110038 15.0957763,17.8326431 14.8478955,17.0045179 C14.6000148,16.1763928 12.8070027,17.3053906 12.1533692,17.7549436 C11.8935512,17.9336399 11.6018281,18.1460542 11.2781998,18.3921862 C11.2013557,18.0537662 11.1262865,17.720821 11.0533438,17.3968557 C11.427415,16.9790065 11.8334789,16.6062975 12.2713444,16.2776996 C13.3052516,15.5017997 14.5964678,15.2777406 14.3201519,14.4588667 C14.0438361,13.6399928 12.2908755,14.8315715 11.6531536,15.3039149 C11.3848614,15.5026316 11.0821555,15.740356 10.7450357,16.0170882 C10.6605105,15.6458156 10.5830848,15.2981739 10.5128598,14.9807018 C10.9145495,14.5170476 11.3540806,14.10642 11.8314029,13.7482116 C12.8653101,12.9723117 14.1565262,12.7482526 13.8802104,11.9293787 C13.6038946,11.1105048 11.850934,12.3020835 11.213212,12.7744269 C10.9193054,12.9921156 10.5841001,13.2566158 10.2075962,13.5679277 C10.1754699,13.4175186 10.1513734,13.296912 10.1355345,13.2108038 C9.83645244,11.5848437 9.85462869,9.36293679 12.0925114,7.43074683 C14.3303941,5.49855686 15.697377,5.2227721 17.1042009,4.59360405 C17.1837041,4.57012679 17.2640039,4.54694244 17.3450393,4.52409876 C18.363134,4.6798127 18.9951573,4.9674519 19.243124,5.38656104 C19.7067103,6.17010691 19.9942256,6.90260317 19.9942256,7.49932947 C19.9942256,8.09605576 21.2231425,8.365089 21.2231425,7.34465429 C21.2231425,6.43981453 20.6545557,4.84963871 19.6494385,4.11936594 C21.0333669,4.21149571 21.9141542,4.57886115 22.2917779,5.2227721 C23.0127694,6.45218208 23.2788036,7.18081667 23.2788036,7.78100242 C23.2788036,8.38118816 24.4213374,8.37786599 24.4213374,7.49932947 C24.4213374,6.76364899 23.8144367,4.90379227 22.4869501,4.00119107 Z M25.6903426,21.7063262 C25.311334,21.7063262 24.207968,21.8583715 22.3802444,22.1624622 C20.9221354,22.5553452 19.7841304,22.9041259 18.9662295,23.2088044 C18.3305229,23.5324885 18.4606254,23.9183351 18.5295205,24.0666194 C18.5984156,24.2149038 18.7834933,24.4554979 19.3605422,24.3070925 C19.9375911,24.1586871 21.6011044,23.6275362 22.4155476,23.4170797 C22.8021767,23.3171727 23.35268,23.1860692 23.9094225,23.0759027 L23.9564553,23.0377885 C23.7411094,23.1775744 23.6660287,23.5343676 23.7312132,24.108168 C24.071743,26.0082658 23.8755969,27.260696 23.1427748,27.8654587 C22.0435418,28.7726028 21.0715075,28.921583 21.0037748,29.4600654 C20.9360422,29.9985478 21.7942256,30.1990373 22.4193218,29.7599075 C23.7312132,29.0001367 25,28.1491118 25,26.684239 C25,25.2193661 24.9114231,24.41747 24.8128019,23.7276293 C24.7443307,23.2486827 24.5120357,23.0481196 24.2695624,23.0078428 C24.7614151,22.9200462 25.2308138,22.8577342 25.5669185,22.8577342 C26.0971205,22.8577342 26.3622215,22.6682538 26.3622215,22.2892929 C26.2933109,21.9006484 26.0693512,21.7063262 25.6903426,21.7063262 Z M25.2904526,19.1583648 C23.7800907,19.2903381 22.6325487,19.4266194 21.8478267,19.5672088 C20.6707437,19.7780929 19.5311697,20.2331921 18.4354771,20.6800426 C17.7997676,21.0037237 17.9063672,21.294657 17.965506,21.5004921 C18.0246448,21.7063271 18.2194799,21.8893667 18.7965314,21.7409626 C19.1812324,21.6420266 20.2378038,21.3183495 21.9662457,20.7699315 C23.736978,20.4813454 24.8450469,20.3331221 25.2904523,20.3252616 C25.9585605,20.3134707 25.8455162,19.7877859 25.8518994,19.5672078 C25.8561549,19.4201557 25.6690059,19.2838747 25.2904526,19.1583648 Z M24.6377981,16.6577372 C24.2153548,16.6651926 22.8081929,16.7106417 21.4063145,17.014098 C20.0044362,17.3175543 19.0086258,17.5819228 17.8568451,18.12557 C17.2211362,18.4492541 17.3325959,18.8811163 17.4014912,19.0294007 C17.4703865,19.1776851 17.6554649,19.4182792 18.2325159,19.2698737 C18.8095668,19.1214683 20.4862759,18.3372944 21.470666,18.1943249 C22.455056,18.0513554 24.0456547,17.848966 24.7137622,17.8371752 C25.2927887,17.8269565 25.3317316,17.5255986 25.3318706,17.252215 L25.3310049,17.1291863 C25.330931,16.832393 25.0602414,16.650282 24.6377981,16.6577372 Z M24.1967226,14.1297077 C23.7742808,14.137163 22.0826771,14.1940169 20.850393,14.4831446 C18.8152032,14.9326307 18.4446051,15.1108345 17.2928285,15.6544816 C16.6571219,15.9781657 16.7685812,16.4100279 16.8374763,16.5583123 C16.9063714,16.7065967 17.0914491,16.9471907 17.668498,16.7987854 C18.2455469,16.65038 19.8137023,15.8753999 20.850393,15.6544816 C21.8870837,15.4335633 23.5286174,15.3507762 24.1967226,15.3389855 C24.8648277,15.3271947 24.9107801,14.8748745 24.9171633,14.6542943 C24.9235464,14.433714 24.6191644,14.1222524 24.1967226,14.1297077 Z M23.7555184,11.5719192 C23.3330766,11.5793745 21.7055107,11.5735821 20.2244303,11.8772434 C18.2391596,12.2842773 17.9745928,12.4496624 16.8228162,12.9933094 C16.1871096,13.3169935 16.2985689,13.7488558 16.367464,13.8971401 C16.4363591,14.0454245 16.6214369,14.2860186 17.1984858,14.1376132 C17.7755346,13.9892078 19.3837992,13.2254532 20.3681857,13.0824838 C21.3525722,12.9395143 22.9591766,12.7870558 23.6792042,12.7870558 C24.3992318,12.7870558 24.4170431,12.3595904 24.4234262,12.1390102 C24.4298094,11.9184299 24.1779603,11.5644639 23.7555184,11.5719192 Z M24.2717084,10 C23.8042963,10 21.5592967,10.0129688 20.253285,10.1656133 C18.9472733,10.3182577 17.860572,10.6228385 16.5761917,11.0430207 C15.8668454,11.2939038 15.9818853,11.6422322 16.0552596,11.7622682 C16.1286339,11.8823043 16.328757,12.0781036 16.969874,11.9671234 C17.6109911,11.8561431 19.2831194,11.2056526 20.3746953,11.1048089 C21.4662713,11.0039652 23.5324814,10.9199288 24.2717084,10.9199288 C25.0109354,10.9199288 24.9883899,10.6418073 24.9996626,10.4647904 C25.0109354,10.2877735 24.7391204,10 24.2717084,10 Z" id="Combined-Shape" fill="url(#linearGradient-3)" mask="url(#mask-2)"></path>
                    </g>
                </g>
            </g>
        </g>
    </g>
</svg>