<?xml version="1.0" encoding="UTF-8"?>
<svg width="36px" height="32px" viewBox="0 0 36 32" version="1.1" xmlns="http://www.w3.org/2000/svg" xmlns:xlink="http://www.w3.org/1999/xlink">
    <!-- Generator: Sketch 61.2 (89653) - https://sketch.com -->
    <title>Combined Shape</title>
    <desc>Created with Sketch.</desc>
    <defs>
        <linearGradient x1="13.2858783%" y1="10.4938272%" x2="80.9171248%" y2="205.781057%" id="linearGradient-1">
            <stop stop-color="#FFE7E4" offset="0%"></stop>
            <stop stop-color="#D41200" offset="100%"></stop>
        </linearGradient>
    </defs>
    <g id="Page-1" stroke="none" stroke-width="1" fill="none" fill-rule="evenodd">
        <g id="_1200_016_Top_Album_Detail" transform="translate(-24.000000, -1742.000000)" fill="url(#linearGradient-1)">
            <path d="M60,1751.411 L60,1769 C60,1771.76142 57.7614237,1774 55,1774 L29,1774 C26.2385763,1774 24,1771.76142 24,1769 L24,1751.411 L60,1751.411 Z M34.5,1763.41176 L27,1763.41176 L27,1770 L34.5,1770 L34.5,1763.41176 Z M45.75,1763.41176 L38.25,1763.41176 L38.25,1770 L45.75,1770 L45.75,1763.41176 Z M57,1763.41176 L49.5,1763.41176 L49.5,1770 L57,1770 L57,1763.41176 Z M34.5,1754 L27,1754 L27,1760.58824 L34.5,1760.58824 L34.5,1754 Z M45.75,1754 L38.25,1754 L38.25,1760.58824 L45.75,1760.58824 L45.75,1754 Z M57,1754 L49.5,1754 L49.5,1760.58824 L57,1760.58824 L57,1754 Z M55,1742 C57.7614237,1742 60,1744.23858 60,1747 L60,1749.529 L24,1749.529 L24,1747 C24,1744.23858 26.2385763,1742 29,1742 L55,1742 Z" id="Combined-Shape"></path>
        </g>
    </g>
</svg>